<svg width="159" height="34" viewBox="0 0 159 34" fill="none" xmlns="http://www.w3.org/2000/svg">
<g clip-path="url(#clip0_138_2925)">
<path d="M125.489 0.814636H119.262V32.4553H125.489V0.814636Z" fill="white"/>
<path d="M32.3395 0.814636L17.5377 21.2612L2.84954 0.814636H2.49695V32.421H8.72638V19.0277L17.5377 31.9507H17.6513L32.6921 10.4501V0.814636H32.3395Z" fill="white"/>
<path d="M28.8354 24.746C30.9657 24.746 32.6919 26.4723 32.6919 28.6026C32.6919 30.7328 30.9657 32.4554 28.8354 32.4554C26.7051 32.4554 24.9825 30.7292 24.9825 28.6026C24.9825 26.476 26.7088 24.746 28.8354 24.746Z" fill="#009933"/>
<path d="M155.367 0.814636H148.318L139.623 14.5567V0.814636H133.396V32.3998H139.623V25.4081C144.913 17.2103 150.199 9.01245 155.367 0.814636Z" fill="white"/>
<path d="M151.544 24.746C153.674 24.746 155.4 26.4723 155.4 28.6026C155.4 30.7329 153.674 32.4554 151.544 32.4554C149.413 32.4554 147.691 30.7292 147.691 28.6026C147.691 26.476 149.417 24.746 151.544 24.746Z" fill="#009933"/>
<path d="M46.6278 0.814636H40.4014V32.4553H46.6278V0.814636Z" fill="white"/>
<path d="M72.8932 0.814636V18.3866L54.7266 0.827737H54.3748V8.85097C62.4632 16.7579 69.6988 24.6648 77.9045 32.4553H79.1091V0.814636H72.8972H72.8932Z" fill="white"/>
<path d="M105.337 0.814636V18.3866L87.1704 0.827737H86.8185V8.85097C94.907 16.7579 102.143 24.6648 110.348 32.4553H111.553V0.814636H105.341H105.337Z" fill="white"/>
<path d="M65.9389 32.4552H54.3748V20.8911L65.9389 32.4552Z" fill="#F5AF19"/>
<path d="M98.3826 32.4552H86.8185V20.8911L98.3826 32.4552Z" fill="#FF6224"/>
</g>
<defs>
<clipPath id="clip0_138_2925">
<rect width="158" height="34" fill="white" transform="translate(0.1875)"/>
</clipPath>
</defs>
</svg>
