<svg width="74" height="73" viewBox="0 0 74 73" fill="none" xmlns="http://www.w3.org/2000/svg">
<g clip-path="url(#clip0_134_1386)">
<path d="M0.726562 26.3874C0.726562 17.1509 0.726562 12.5327 2.52409 9.00484C4.10525 5.90165 6.62822 3.37868 9.7314 1.79753C13.2593 0 17.8775 0 27.1139 0H47.2516C56.4881 0 61.1063 0 64.6341 1.79753C67.7373 3.37868 70.2603 5.90165 71.8415 9.00484C73.639 12.5327 73.639 17.1509 73.639 26.3874V46.5251C73.639 55.7615 73.639 60.3797 71.8415 63.9076C70.2603 67.0108 67.7373 69.5337 64.6341 71.1149C61.1063 72.9124 56.4881 72.9124 47.2516 72.9124H27.1139C17.8775 72.9124 13.2593 72.9124 9.7314 71.1149C6.62822 69.5337 4.10525 67.0108 2.52409 63.9076C0.726562 60.3797 0.726562 55.7615 0.726562 46.5251V26.3874Z" fill="white"/>
<path d="M0.726562 26.3874C0.726562 17.1509 0.726562 12.5327 2.52409 9.00484C4.10525 5.90165 6.62822 3.37868 9.7314 1.79753C13.2593 0 17.8775 0 27.1139 0H47.2516C56.4881 0 61.1063 0 64.6341 1.79753C67.7373 3.37868 70.2603 5.90165 71.8415 9.00484C73.639 12.5327 73.639 17.1509 73.639 26.3874V46.5251C73.639 55.7615 73.639 60.3797 71.8415 63.9076C70.2603 67.0108 67.7373 69.5337 64.6341 71.1149C61.1063 72.9124 56.4881 72.9124 47.2516 72.9124H27.1139C17.8775 72.9124 13.2593 72.9124 9.7314 71.1149C6.62822 69.5337 4.10525 67.0108 2.52409 63.9076C0.726562 60.3797 0.726562 55.7615 0.726562 46.5251V26.3874Z" fill="url(#paint0_radial_134_1386)"/>
<path d="M0.726562 26.3874C0.726562 17.1509 0.726562 12.5327 2.52409 9.00484C4.10525 5.90165 6.62822 3.37868 9.7314 1.79753C13.2593 0 17.8775 0 27.1139 0H47.2516C56.4881 0 61.1063 0 64.6341 1.79753C67.7373 3.37868 70.2603 5.90165 71.8415 9.00484C73.639 12.5327 73.639 17.1509 73.639 26.3874V46.5251C73.639 55.7615 73.639 60.3797 71.8415 63.9076C70.2603 67.0108 67.7373 69.5337 64.6341 71.1149C61.1063 72.9124 56.4881 72.9124 47.2516 72.9124H27.1139C17.8775 72.9124 13.2593 72.9124 9.7314 71.1149C6.62822 69.5337 4.10525 67.0108 2.52409 63.9076C0.726562 60.3797 0.726562 55.7615 0.726562 46.5251V26.3874Z" fill="url(#paint1_radial_134_1386)"/>
<path d="M0.726562 26.3874C0.726562 17.1509 0.726562 12.5327 2.52409 9.00484C4.10525 5.90165 6.62822 3.37868 9.7314 1.79753C13.2593 0 17.8775 0 27.1139 0H47.2516C56.4881 0 61.1063 0 64.6341 1.79753C67.7373 3.37868 70.2603 5.90165 71.8415 9.00484C73.639 12.5327 73.639 17.1509 73.639 26.3874V46.5251C73.639 55.7615 73.639 60.3797 71.8415 63.9076C70.2603 67.0108 67.7373 69.5337 64.6341 71.1149C61.1063 72.9124 56.4881 72.9124 47.2516 72.9124H27.1139C17.8775 72.9124 13.2593 72.9124 9.7314 71.1149C6.62822 69.5337 4.10525 67.0108 2.52409 63.9076C0.726562 60.3797 0.726562 55.7615 0.726562 46.5251V26.3874Z" fill="url(#paint2_radial_134_1386)"/>
<path d="M0.726562 26.3874C0.726562 17.1509 0.726562 12.5327 2.52409 9.00484C4.10525 5.90165 6.62822 3.37868 9.7314 1.79753C13.2593 0 17.8775 0 27.1139 0H47.2516C56.4881 0 61.1063 0 64.6341 1.79753C67.7373 3.37868 70.2603 5.90165 71.8415 9.00484C73.639 12.5327 73.639 17.1509 73.639 26.3874V46.5251C73.639 55.7615 73.639 60.3797 71.8415 63.9076C70.2603 67.0108 67.7373 69.5337 64.6341 71.1149C61.1063 72.9124 56.4881 72.9124 47.2516 72.9124H27.1139C17.8775 72.9124 13.2593 72.9124 9.7314 71.1149C6.62822 69.5337 4.10525 67.0108 2.52409 63.9076C0.726562 60.3797 0.726562 55.7615 0.726562 46.5251V26.3874Z" fill="url(#paint3_radial_134_1386)"/>
<path d="M0.726562 26.3874C0.726562 17.1509 0.726562 12.5327 2.52409 9.00484C4.10525 5.90165 6.62822 3.37868 9.7314 1.79753C13.2593 0 17.8775 0 27.1139 0H47.2516C56.4881 0 61.1063 0 64.6341 1.79753C67.7373 3.37868 70.2603 5.90165 71.8415 9.00484C73.639 12.5327 73.639 17.1509 73.639 26.3874V46.5251C73.639 55.7615 73.639 60.3797 71.8415 63.9076C70.2603 67.0108 67.7373 69.5337 64.6341 71.1149C61.1063 72.9124 56.4881 72.9124 47.2516 72.9124H27.1139C17.8775 72.9124 13.2593 72.9124 9.7314 71.1149C6.62822 69.5337 4.10525 67.0108 2.52409 63.9076C0.726562 60.3797 0.726562 55.7615 0.726562 46.5251V26.3874Z" fill="url(#paint4_radial_134_1386)"/>
<path d="M0.726562 26.3874C0.726562 17.1509 0.726562 12.5327 2.52409 9.00484C4.10525 5.90165 6.62822 3.37868 9.7314 1.79753C13.2593 0 17.8775 0 27.1139 0H47.2516C56.4881 0 61.1063 0 64.6341 1.79753C67.7373 3.37868 70.2603 5.90165 71.8415 9.00484C73.639 12.5327 73.639 17.1509 73.639 26.3874V46.5251C73.639 55.7615 73.639 60.3797 71.8415 63.9076C70.2603 67.0108 67.7373 69.5337 64.6341 71.1149C61.1063 72.9124 56.4881 72.9124 47.2516 72.9124H27.1139C17.8775 72.9124 13.2593 72.9124 9.7314 71.1149C6.62822 69.5337 4.10525 67.0108 2.52409 63.9076C0.726562 60.3797 0.726562 55.7615 0.726562 46.5251V26.3874Z" fill="url(#paint5_radial_134_1386)"/>
<path d="M0.726562 26.3874C0.726562 17.1509 0.726562 12.5327 2.52409 9.00484C4.10525 5.90165 6.62822 3.37868 9.7314 1.79753C13.2593 0 17.8775 0 27.1139 0H47.2516C56.4881 0 61.1063 0 64.6341 1.79753C67.7373 3.37868 70.2603 5.90165 71.8415 9.00484C73.639 12.5327 73.639 17.1509 73.639 26.3874V46.5251C73.639 55.7615 73.639 60.3797 71.8415 63.9076C70.2603 67.0108 67.7373 69.5337 64.6341 71.1149C61.1063 72.9124 56.4881 72.9124 47.2516 72.9124H27.1139C17.8775 72.9124 13.2593 72.9124 9.7314 71.1149C6.62822 69.5337 4.10525 67.0108 2.52409 63.9076C0.726562 60.3797 0.726562 55.7615 0.726562 46.5251V26.3874Z" fill="url(#paint6_radial_134_1386)"/>
<path d="M58.924 21.9358C55.0657 17.667 49.6277 15.2677 43.977 15.2989C38.4478 15.2989 32.8274 17.7293 29.2122 21.6554C28.5438 21.593 27.8755 21.5307 27.2375 21.5307C16.3918 21.5307 9.67773 30.8785 9.67773 39.5407C9.70811 44.2146 11.4702 48.7015 14.5993 52.129C17.8804 55.7123 22.4374 57.7377 27.2375 57.7377H43.977C55.3391 57.7377 64.5747 48.1718 64.5747 36.4559C64.514 31.0654 62.5089 25.893 58.924 21.9358ZM26.9033 54.6841C18.8525 54.6841 12.3512 47.9848 12.3512 39.7277C12.3512 31.5328 18.8222 24.8647 26.8425 24.8024C30.397 24.8024 34.1338 25.9865 36.5034 28.5727L42.6098 34.9915C43.6124 36.0509 43.582 37.7335 42.5491 38.7617C41.5162 39.79 39.8756 39.7588 38.8731 38.6994L32.9186 32.4053C29.0299 28.9778 23.1665 29.414 19.8247 33.4024C18.3665 35.1161 17.5766 37.3284 17.5766 39.603C17.5766 44.8378 21.9209 49.2624 27.0552 49.2624H28.24C29.9413 51.6928 34.711 54.6841 34.711 54.6841H26.9033ZM56.7366 49.3247C53.4859 52.8145 48.9897 54.7775 44.2808 54.8087C39.8149 54.8087 35.2578 52.7522 31.7641 49.2L23.8045 40.974C22.802 39.9146 22.8323 38.232 23.8349 37.2038C24.321 36.7052 24.959 36.456 25.6577 36.456C26.3564 36.456 27.0248 36.7364 27.5109 37.2661L35.4401 45.3986C37.9617 47.9848 41.182 49.4493 44.2808 49.4493C47.5922 49.4493 50.7517 48.0472 53.0302 45.5544C55.3695 43.0929 56.6759 39.79 56.6759 36.3625C56.6759 29.3205 51.0859 23.6184 44.22 23.5872C41.6073 23.5872 39.4503 24.1169 37.3237 25.6437C36.1198 24.409 33.5262 23.1822 32.3413 22.9329C35.6224 19.7858 39.7237 18.259 44.22 18.259C53.972 18.259 61.8405 26.3604 61.8709 36.3625C61.8709 41.1921 60.0481 45.866 56.7366 49.3247Z" fill="white"/>
</g>
<defs>
<radialGradient id="paint0_radial_134_1386" cx="0" cy="0" r="1" gradientUnits="userSpaceOnUse" gradientTransform="translate(61.335 62.3183) rotate(46.87) scale(43.5491 44.6063)">
<stop stop-color="#68E048"/>
<stop offset="1" stop-color="#5CE049" stop-opacity="0"/>
</radialGradient>
<radialGradient id="paint1_radial_134_1386" cx="0" cy="0" r="1" gradientUnits="userSpaceOnUse" gradientTransform="translate(12.271 62.0067) rotate(137.364) scale(44.3927 45.6406)">
<stop stop-color="#308CFE"/>
<stop offset="1" stop-color="#2F8BFF" stop-opacity="0"/>
</radialGradient>
<radialGradient id="paint2_radial_134_1386" cx="0" cy="0" r="1" gradientUnits="userSpaceOnUse" gradientTransform="translate(59.9679 40.8185) rotate(7.9001) scale(26.0706 27.3991)">
<stop stop-color="#FDD511"/>
<stop offset="1" stop-color="#FDD20D" stop-opacity="0"/>
</radialGradient>
<radialGradient id="paint3_radial_134_1386" cx="0" cy="0" r="1" gradientUnits="userSpaceOnUse" gradientTransform="translate(13.1824 26.3295) rotate(-127.134) scale(38.4983 39.227)">
<stop stop-color="#F928C2"/>
<stop offset="1" stop-color="#F922BC" stop-opacity="0"/>
</radialGradient>
<radialGradient id="paint4_radial_134_1386" cx="0" cy="0" r="1" gradientUnits="userSpaceOnUse" gradientTransform="translate(42.0436 12.1521) rotate(-63.404) scale(38.6795 39.0822)">
<stop stop-color="#F90700"/>
<stop offset="1" stop-color="#F90700" stop-opacity="0"/>
</radialGradient>
<radialGradient id="paint5_radial_134_1386" cx="0" cy="0" r="1" gradientUnits="userSpaceOnUse" gradientTransform="translate(69.6896 10.5941) rotate(-65.6935) scale(23.2491 23.4537)">
<stop stop-color="#FB4200"/>
<stop offset="1" stop-color="#FB4300" stop-opacity="0"/>
</radialGradient>
<radialGradient id="paint6_radial_134_1386" cx="0" cy="0" r="1" gradientUnits="userSpaceOnUse" gradientTransform="translate(8.3216 8.88036) rotate(-133.672) scale(20.6779 21.19)">
<stop stop-color="#FE0D88"/>
<stop offset="1" stop-color="#FE0D88" stop-opacity="0"/>
</radialGradient>
<clipPath id="clip0_134_1386">
<rect width="72.9124" height="72.9124" fill="white" transform="translate(0.726562)"/>
</clipPath>
</defs>
</svg>
