<svg width="74" height="74" viewBox="0 0 74 74" fill="none" xmlns="http://www.w3.org/2000/svg">
<g opacity="0.86" clip-path="url(#clip0_134_1392)">
<path d="M27.1697 57.3049C27.1697 57.3049 24.3844 58.9247 29.1519 59.4728C34.9277 60.1317 37.8796 60.0372 44.2445 58.8326C44.2445 58.8326 45.9178 59.8818 48.2549 60.7906C33.9864 66.9058 15.9626 60.4364 27.1697 57.3049Z" fill="#5382A1"/>
<path d="M25.4268 49.325C25.4268 49.325 22.3028 51.6374 27.0738 52.1309C33.2436 52.7674 38.1161 52.8195 46.5473 51.196C46.5473 51.196 47.7134 52.3782 49.5471 53.0248C32.2957 58.0693 13.0808 53.4226 25.4268 49.325Z" fill="#5382A1"/>
<path d="M40.1251 35.7884C43.6408 39.8362 39.2013 43.4786 39.2013 43.4786C39.2013 43.4786 48.1284 38.8702 44.0286 33.0994C40.1995 27.7177 37.2631 25.0438 53.1595 15.8245C53.1595 15.8245 28.2074 22.0564 40.1251 35.7884Z" fill="#E76F00"/>
<path d="M58.9961 63.2073C58.9961 63.2073 61.0572 64.9056 56.726 66.2195C48.4901 68.7145 22.4473 69.4679 15.2127 66.3189C12.612 65.1875 17.489 63.6175 19.0231 63.288C20.623 62.9411 21.5373 63.0057 21.5373 63.0057C18.6451 60.9683 2.8434 67.0063 13.5108 68.7355C42.6024 73.4533 66.542 66.611 58.9961 63.2073Z" fill="#5382A1"/>
<path d="M28.5095 41.0568C28.5095 41.0568 15.2625 44.2032 23.8184 45.3458C27.431 45.8294 34.6326 45.72 41.3407 45.1579C46.8229 44.6955 52.3277 43.7122 52.3277 43.7122C52.3277 43.7122 50.3946 44.5401 48.9961 45.4951C35.5439 49.033 9.55688 47.3871 17.0382 43.7682C23.3652 40.7098 28.5095 41.0568 28.5095 41.0568Z" fill="#5382A1"/>
<path d="M52.2734 54.3397C65.9481 47.2338 59.6254 40.4051 55.2123 41.3251C54.1306 41.5502 53.6484 41.7453 53.6484 41.7453C53.6484 41.7453 54.0499 41.1162 54.8169 40.8439C63.5474 37.7746 70.2618 49.8967 51.9985 54.6978C51.9985 54.698 52.2101 54.5089 52.2734 54.3397Z" fill="#5382A1"/>
<path d="M44.0286 0.9375C44.0286 0.9375 51.6019 8.51333 36.8457 20.1628C25.0127 29.5077 34.1474 34.8359 36.8408 40.9236C29.9337 34.6917 24.8648 29.2058 28.2654 24.0999C33.2567 16.605 47.0843 12.9712 44.0286 0.9375Z" fill="#E76F00"/>
<path d="M29.8529 73.5953C42.9789 74.4355 63.1354 73.1291 63.6128 66.9182C63.6128 66.9182 62.6952 69.2727 52.7649 71.1426C41.5615 73.2509 27.7438 73.0047 19.5483 71.6535C19.5485 71.6533 21.2261 73.0421 29.8529 73.5953Z" fill="#5382A1"/>
</g>
<defs>
<clipPath id="clip0_134_1392">
<rect width="72.8868" height="72.8868" fill="white" transform="translate(0.177246 0.9375)"/>
</clipPath>
</defs>
</svg>
