<svg width="74" height="74" viewBox="0 0 74 74" fill="none" xmlns="http://www.w3.org/2000/svg">
<path d="M23.6571 71.7901C21.9598 71.7901 20.3569 71.0358 19.2726 69.6686L2.77191 49.1606C1.68758 47.7934 1.26328 46.0491 1.68758 44.3519L7.58068 18.7522C7.95784 17.055 9.08931 15.6878 10.6451 14.9335L34.5004 3.52448C35.2547 3.14732 36.1033 2.95874 36.9519 2.95874C37.8005 2.95874 38.6491 3.14732 39.4034 3.52448L63.2587 14.8864C64.8145 15.6407 65.9459 17.0079 66.3231 18.7051L72.2162 44.3047C72.5934 46.0019 72.2162 47.7463 71.1319 49.1135L54.6312 69.6215C53.5469 70.9415 51.9439 71.743 50.2467 71.743L23.6571 71.7901Z" fill="#326DE6"/>
<path d="M36.9049 4.13744C37.5649 4.13744 38.2249 4.27887 38.8378 4.56174L62.6931 15.9236C63.9188 16.5365 64.8617 17.668 65.1446 18.988L71.0377 44.5877C71.3677 45.9549 71.0377 47.3692 70.1419 48.4535L53.6413 68.9615C52.7927 70.0459 51.4726 70.6587 50.1054 70.6587H23.6572C22.29 70.6587 20.9699 70.0459 20.1213 68.9615L3.62064 48.4535C2.77203 47.3692 2.44202 45.9549 2.72489 44.5877L8.61798 18.988C8.948 17.6208 9.84375 16.4894 11.0695 15.9236L34.9248 4.51459C35.5377 4.27887 36.2448 4.13744 36.9049 4.13744ZM36.9049 1.92163C35.9148 1.92163 34.9248 2.15735 33.9819 2.58166L10.1266 13.9907C8.24083 14.8864 6.92077 16.5365 6.44932 18.5637L0.556224 44.1634C0.0847763 46.1906 0.556224 48.265 1.87628 49.915L18.377 70.423C19.6499 72.0259 21.5828 72.9217 23.61 72.9217H50.0583C52.0855 72.9217 54.0184 72.0259 55.2913 70.423L71.792 49.915C73.1121 48.3121 73.5835 46.1906 73.1121 44.1634L67.219 18.5637C66.7475 16.5365 65.4275 14.8864 63.5417 13.9907L39.7807 2.58166C38.8849 2.15735 37.8949 1.92163 36.9049 1.92163Z" fill="white"/>
<path d="M60.807 42.5604C60.7599 42.5604 60.7599 42.5604 60.807 42.5604H60.7599C60.7128 42.5604 60.6656 42.5604 60.6656 42.5132C60.5713 42.5132 60.477 42.4661 60.3827 42.4661C60.0527 42.4189 59.7699 42.3718 59.487 42.3718C59.3456 42.3718 59.2041 42.3718 59.0155 42.3247H58.9684C57.9784 42.2304 57.1769 42.1361 56.4226 41.9004C56.0926 41.7589 55.9983 41.5703 55.904 41.3818C55.904 41.3346 55.8568 41.3346 55.8568 41.2875L55.244 41.0989C55.5268 38.9302 55.4325 36.6673 54.914 34.4515C54.3954 32.2357 53.4996 30.1613 52.2738 28.2755L52.7453 27.8512V27.7569C52.7453 27.5212 52.7924 27.2855 52.981 27.0497C53.5468 26.5311 54.2539 26.1068 55.1025 25.5882C55.244 25.494 55.3854 25.4468 55.5268 25.3525C55.8097 25.2111 56.0454 25.0697 56.3283 24.8811C56.3754 24.8339 56.4697 24.7868 56.564 24.6925C56.6112 24.6454 56.6583 24.6454 56.6583 24.5982C57.3183 24.0325 57.4598 23.0896 56.9883 22.4767C56.7526 22.1467 56.3283 21.9581 55.904 21.9581C55.5268 21.9581 55.1968 22.0995 54.8668 22.3353C54.8197 22.3824 54.8197 22.3824 54.7725 22.4295C54.6782 22.4767 54.6311 22.571 54.5368 22.6181C54.3011 22.8539 54.1125 23.0424 53.9239 23.2782C53.8296 23.3724 53.7353 23.5139 53.5939 23.6082C52.9339 24.3153 52.321 24.8811 51.7081 25.3054C51.5667 25.3997 51.4252 25.4468 51.2838 25.4468C51.1895 25.4468 51.0952 25.4468 51.0009 25.3997H50.9066L50.3409 25.7768C49.728 25.1168 49.068 24.5511 48.408 23.9853C45.5793 21.7695 42.1377 20.4023 38.5547 20.0723L38.5076 19.4594C38.4604 19.4123 38.4604 19.4123 38.4133 19.3651C38.2718 19.2237 38.0833 19.0823 38.0361 18.7523C37.989 17.9979 38.0833 17.1493 38.1776 16.2064V16.1593C38.1776 16.0179 38.2247 15.8293 38.2718 15.6878C38.319 15.405 38.3661 15.1221 38.4133 14.7921V14.5092V14.3678C38.4133 13.5192 37.7532 12.812 36.9518 12.812C36.5746 12.812 36.1975 13.0006 35.9146 13.2835C35.6317 13.5663 35.4903 13.9435 35.4903 14.3678V14.4621V14.7449C35.4903 15.075 35.5374 15.3578 35.6317 15.6407C35.6789 15.7821 35.6789 15.9236 35.726 16.1121V16.1593C35.8203 17.1022 35.9617 17.9508 35.8675 18.7051C35.8203 19.0351 35.6317 19.1766 35.4903 19.318C35.4432 19.3651 35.4432 19.3651 35.396 19.4123L35.3489 20.0252C34.5003 20.1195 33.6517 20.2137 32.803 20.4023C29.1729 21.2038 25.9671 23.0424 23.4684 25.6825L22.9969 25.3525H22.9026C22.8083 25.3525 22.7141 25.3997 22.6198 25.3997C22.4783 25.3997 22.3369 25.3525 22.1955 25.2582C21.5826 24.8339 20.9697 24.2211 20.3097 23.5139C20.2154 23.4196 20.1211 23.2782 19.9797 23.1839C19.7911 22.9481 19.6025 22.7596 19.3668 22.5238C19.3196 22.4767 19.2253 22.4295 19.1311 22.3353C19.0839 22.2881 19.0368 22.2881 19.0368 22.241C18.7539 22.0052 18.3767 21.8638 17.9996 21.8638C17.5753 21.8638 17.151 22.0524 16.9153 22.3824C16.4438 22.9953 16.5852 23.9382 17.2453 24.5039C17.2924 24.5039 17.2924 24.5511 17.3396 24.5511C17.4338 24.5982 17.481 24.6925 17.5753 24.7396C17.8581 24.9282 18.0939 25.0697 18.3767 25.2111C18.5182 25.2582 18.6596 25.3525 18.801 25.4468C19.6496 25.9654 20.3568 26.3897 20.9226 26.9083C21.1583 27.144 21.1583 27.3798 21.1583 27.6155V27.7098L21.6297 28.1341C21.5354 28.2755 21.4412 28.3698 21.394 28.5112C19.0368 32.2357 18.141 36.6201 18.7539 40.9575L18.141 41.146C18.141 41.1932 18.0939 41.1932 18.0939 41.2403C17.9996 41.4289 17.8581 41.6175 17.5753 41.7589C16.8681 41.9946 16.0195 42.0889 15.0295 42.1832H14.9823C14.8409 42.1832 14.6523 42.1832 14.5109 42.2304C14.228 42.2304 13.9451 42.2775 13.6151 42.3247C13.5208 42.3247 13.4265 42.3718 13.3322 42.3718C13.2851 42.3718 13.238 42.3718 13.1908 42.4189C12.3422 42.6075 11.8236 43.409 11.965 44.1633C12.1065 44.8233 12.7194 45.2476 13.4737 45.2476C13.6151 45.2476 13.7094 45.2476 13.8508 45.2005C13.898 45.2005 13.9451 45.2005 13.9451 45.1533C14.0394 45.1533 14.1337 45.1062 14.228 45.1062C14.558 45.0119 14.7937 44.9176 15.0766 44.7762C15.218 44.729 15.3595 44.6347 15.5009 44.5876H15.5481C16.4438 44.2576 17.2453 43.9747 17.9996 43.8804H18.0939C18.3767 43.8804 18.5653 44.0219 18.7068 44.1162C18.7539 44.1162 18.7539 44.1633 18.801 44.1633L19.4611 44.069C20.5925 47.5577 22.7612 50.6693 25.637 52.9322C26.2971 53.4508 26.9571 53.8751 27.6643 54.2994L27.3814 54.9123C27.3814 54.9595 27.4285 54.9595 27.4285 55.0066C27.5228 55.1952 27.6171 55.4309 27.5228 55.7609C27.24 56.4681 26.8157 57.1753 26.2971 57.9767V58.0239C26.2028 58.1653 26.1085 58.2596 26.0142 58.401C25.8256 58.6368 25.6842 58.8725 25.4956 59.1553C25.4485 59.2025 25.4013 59.2968 25.3542 59.3911C25.3542 59.4382 25.307 59.4854 25.307 59.4854C24.9299 60.2868 25.2127 61.1826 25.9199 61.5126C26.1085 61.6069 26.2971 61.654 26.4856 61.654C27.0514 61.654 27.6171 61.2769 27.9 60.7583C27.9 60.7111 27.9471 60.664 27.9471 60.664C27.9943 60.5697 28.0414 60.4754 28.0886 60.4283C28.23 60.0982 28.2771 59.8625 28.3714 59.5796C28.4186 59.4382 28.4657 59.2968 28.5129 59.1553C28.8429 58.2124 29.0786 57.4581 29.5029 56.7981C29.6915 56.5152 29.9272 56.4681 30.1158 56.3738C30.1629 56.3738 30.1629 56.3738 30.2101 56.3267L30.5401 55.7138C32.6145 56.5152 34.8774 56.9395 37.1404 56.9395C38.5076 56.9395 39.9219 56.7981 41.242 56.4681C42.0906 56.2795 42.892 56.0438 43.6935 55.7609L43.9764 56.2795C44.0235 56.2795 44.0235 56.2795 44.0707 56.3267C44.3064 56.3738 44.495 56.4681 44.6835 56.751C45.0607 57.411 45.3436 58.2124 45.6736 59.1082V59.1553C45.7207 59.2968 45.7679 59.4382 45.815 59.5796C45.9093 59.8625 45.9564 60.1454 46.0979 60.4283C46.145 60.5225 46.1922 60.5697 46.2393 60.664C46.2393 60.7111 46.2865 60.7583 46.2865 60.7583C46.5693 61.324 47.1351 61.654 47.7008 61.654C47.8894 61.654 48.078 61.6069 48.2665 61.5126C48.5966 61.324 48.8794 61.0411 48.9737 60.664C49.068 60.2868 49.068 59.8625 48.8794 59.4854C48.8794 59.4382 48.8323 59.4382 48.8323 59.3911C48.7851 59.2968 48.738 59.2025 48.6908 59.1553C48.5494 58.8725 48.3608 58.6368 48.1722 58.401C48.078 58.2596 47.9837 58.1653 47.8894 58.0239V57.9767C47.3708 57.1753 46.8993 56.4681 46.6636 55.7609C46.5693 55.4309 46.6636 55.2423 46.7108 55.0066C46.7108 54.9595 46.7579 54.9595 46.7579 54.9123L46.5222 54.3466C49.0209 52.8851 51.1424 50.8107 52.7453 48.2649C53.5939 46.9448 54.2539 45.4834 54.7254 44.0219L55.2911 44.1162C55.3383 44.1162 55.3383 44.069 55.3854 44.069C55.574 43.9747 55.7154 43.8333 55.9983 43.8333H56.0926C56.8469 43.9276 57.6483 44.2104 58.5441 44.5405H58.5912C58.7327 44.5876 58.8741 44.6819 59.0155 44.729C59.2984 44.8705 59.5341 44.9648 59.8642 45.059C59.9584 45.059 60.0527 45.1062 60.147 45.1062C60.1942 45.1062 60.2413 45.1062 60.2885 45.1533C60.4299 45.2005 60.5242 45.2005 60.6656 45.2005C61.3728 45.2005 61.9857 44.729 62.1743 44.1162C62.1743 43.5504 61.6557 42.7961 60.807 42.5604ZM38.979 40.2503L36.9046 41.2403L34.8303 40.2503L34.3117 38.0345L35.726 36.243H38.0361L39.4505 38.0345L38.979 40.2503ZM51.2838 35.3472C51.661 36.9501 51.7552 38.5531 51.6138 40.1088L44.4007 38.0345C43.7406 37.8459 43.3635 37.1859 43.5049 36.5258C43.5521 36.3373 43.6464 36.1487 43.7878 36.0073L49.4923 30.8685C50.2938 32.1885 50.9066 33.6972 51.2838 35.3472ZM47.2294 28.0398L41.0534 32.4242C40.5348 32.7543 39.8276 32.66 39.4033 32.1414C39.2619 31.9999 39.2147 31.8114 39.1676 31.6228L38.7433 23.9382C41.9963 24.3153 44.9664 25.7768 47.2294 28.0398ZM33.5574 24.1739C34.076 24.0796 34.5474 23.9853 35.066 23.891L34.6417 31.4342C34.5945 32.0942 34.076 32.66 33.3688 32.66C33.1802 32.66 32.9445 32.6128 32.803 32.5185L26.5328 28.0398C28.4657 26.1068 30.8701 24.7868 33.5574 24.1739ZM24.2698 30.8685L29.8801 35.8658C30.3987 36.2901 30.4458 37.0916 30.0215 37.6102C29.8801 37.7988 29.6915 37.9402 29.4558 37.9873L22.1483 40.1088C21.8655 36.903 22.5726 33.65 24.2698 30.8685ZM22.9969 43.6447L30.493 42.3718C31.1058 42.3247 31.6716 42.749 31.813 43.3618C31.8602 43.6447 31.8602 43.8804 31.7659 44.1162L28.89 51.0464C26.2499 49.3492 24.1284 46.7563 22.9969 43.6447ZM40.2048 53.0265C39.1204 53.2622 38.0361 53.4037 36.9046 53.4037C35.2546 53.4037 33.6517 53.1208 32.143 52.6494L35.8675 45.9077C36.2446 45.4834 36.8575 45.2948 37.3761 45.5776C37.6118 45.7191 37.8004 45.9077 37.9418 46.0962L41.572 52.6494C41.1477 52.7908 40.6762 52.8851 40.2048 53.0265ZM49.398 46.4734C48.2194 48.3592 46.6636 49.8678 44.8721 51.0464L41.902 43.9276C41.7606 43.3618 41.9963 42.749 42.562 42.4661C42.7506 42.3718 42.9863 42.3247 43.222 42.3247L50.7652 43.5976C50.4823 44.6347 50.0109 45.5776 49.398 46.4734Z" fill="white"/>
</svg>
