<svg width="74" height="74" viewBox="0 0 74 74" fill="none" xmlns="http://www.w3.org/2000/svg">
<g clip-path="url(#clip0_134_1394)">
<g clip-path="url(#clip1_134_1394)">
<g clip-path="url(#clip2_134_1394)">
<g clip-path="url(#clip3_134_1394)">
<path fill-rule="evenodd" clip-rule="evenodd" d="M68.1821 35.1395C68.1165 35.1526 68.0508 35.2972 68.0508 35.376C68.0376 35.9017 68.0245 37.2948 68.0245 38.2409C68.0245 38.2672 68.0638 38.3197 68.1033 38.3197C68.3004 38.3329 68.7735 38.346 69.1809 38.346C69.746 38.346 70.0745 38.2672 70.2586 38.1884C70.7316 37.9518 70.955 37.4392 70.955 36.8741C70.955 35.5995 70.0614 35.1132 68.7341 35.1132C68.6421 35.1001 68.3793 35.1001 68.1821 35.1395V35.1395V35.1395V35.1395ZM71.5727 41.0138C71.5727 39.7128 70.6133 38.9899 68.8787 38.9899C68.7999 38.9899 68.2479 38.9768 68.1165 39.0031C68.077 39.0162 68.0245 39.0426 68.0245 39.082C68.0245 40.015 68.0114 41.5001 68.0508 42.0782C68.077 42.3279 68.2611 42.6828 68.4845 42.7879C68.7209 42.9193 69.2598 42.9455 69.6277 42.9455C70.666 42.9455 71.5727 42.3674 71.5727 41.0138V41.0138V41.0138V41.0138ZM65.5014 34.4167C65.6327 34.4167 66.027 34.4561 67.0389 34.4561C67.9982 34.4561 68.7604 34.4299 69.6935 34.4299C70.8368 34.4299 72.4138 34.8373 72.4138 36.5456C72.4138 37.3867 71.8224 38.057 71.047 38.3855C71.0077 38.3987 71.0077 38.4248 71.047 38.438C72.1509 38.714 73.1235 39.3974 73.1235 40.6852C73.1235 41.9469 72.335 42.7484 71.1916 43.2479C70.4951 43.5501 69.6278 43.6552 68.7473 43.6552C68.077 43.6552 66.2767 43.5764 65.278 43.6027C65.1728 43.5633 65.3699 43.0901 65.4619 43.0113C65.6985 42.9982 65.8824 42.985 66.1321 42.9062C66.487 42.8142 66.5263 42.7091 66.579 42.1703C66.6053 41.7103 66.6053 40.0807 66.6053 38.9243C66.6053 37.3341 66.6184 36.2565 66.6053 35.7309C66.5921 35.3235 66.4475 35.1921 66.1584 35.1132C65.935 35.0738 65.567 35.0212 65.2648 34.9819C65.199 34.9161 65.4224 34.4692 65.5014 34.4167V34.4167V34.4167V34.4167ZM57.9186 42.5908C58.2341 42.8404 58.8517 42.9455 59.4036 42.9455C60.1133 42.9455 60.8229 42.8142 61.5063 42.1965C62.2028 41.5657 62.689 40.5933 62.689 39.0426C62.689 37.5575 62.1239 36.3485 60.9675 35.6389C60.3104 35.2315 59.4693 35.0607 58.4968 35.0607C58.2078 35.0607 57.9317 35.0738 57.7609 35.1526C57.7215 35.179 57.6295 35.2972 57.6295 35.3629C57.6032 35.6258 57.6032 37.6495 57.6032 38.8323C57.6032 40.0545 57.6032 41.7628 57.6295 41.9599C57.6295 42.1572 57.7215 42.4594 57.9186 42.5908V42.5908V42.5908V42.5908ZM54.9354 34.4168C55.1851 34.4168 56.1444 34.4562 56.6044 34.4562C57.4324 34.4562 58.0237 34.4168 59.5875 34.4168C60.9017 34.4168 62.0056 34.7717 62.7941 35.4418C63.7534 36.2698 64.2528 37.4131 64.2528 38.8061C64.2528 40.7905 63.346 41.9338 62.4392 42.5909C61.5326 43.2611 60.3497 43.6553 58.6677 43.6553C57.7741 43.6553 56.2365 43.629 54.9617 43.6159H54.9486C54.8829 43.4977 55.0537 43.0377 55.1588 43.0246C55.5005 42.9851 55.5925 42.9719 55.7634 42.9063C56.0393 42.8012 56.0919 42.6566 56.1314 42.1704C56.1707 41.2636 56.1576 40.1729 56.1576 38.9375C56.1576 38.0571 56.1707 36.3354 56.1444 35.7835C56.1051 35.3236 55.908 35.2054 55.5137 35.1264C55.3166 35.0871 55.0537 35.0344 54.6858 34.9951C54.6332 34.903 54.8697 34.4957 54.9354 34.4168V34.4168V34.4168V34.4168Z" fill="#8E714E"/>
<path fill-rule="evenodd" clip-rule="evenodd" d="M39.0343 43.1033C38.7058 43.0638 38.4692 43.0113 38.18 42.8799C38.1407 42.8536 38.0749 42.7223 38.0749 42.6697C38.0486 42.2097 38.0486 40.8955 38.0486 40.0151C38.0486 39.3054 37.9304 38.6878 37.6281 38.2541C37.2733 37.7546 36.7608 37.4656 36.1037 37.4656C35.5254 37.4656 34.7501 37.8599 34.1062 38.4118C34.093 38.4249 33.9879 38.517 34.001 38.3724C34.001 38.2278 34.0274 37.9387 34.0405 37.7416C34.0537 37.5575 33.9485 37.4656 33.9485 37.4656C33.5279 37.6758 32.3452 37.9519 31.9115 37.9912C31.5962 38.057 31.5174 38.3592 31.8459 38.4643H31.859C32.2138 38.5695 32.4503 38.6878 32.6343 38.806C32.7657 38.9112 32.7526 39.0558 32.7526 39.174C32.7657 40.1596 32.7657 41.6709 32.7264 42.4989C32.7132 42.8274 32.6212 42.9456 32.3847 42.9982L32.4109 42.985C32.2269 43.0245 32.0823 43.0638 31.8589 43.0902C31.7801 43.169 31.7801 43.5896 31.8589 43.6816C32.0035 43.6816 32.7657 43.6421 33.3966 43.6421C34.2639 43.6421 34.7107 43.6816 34.9342 43.6816C35.0261 43.5764 35.0524 43.1821 34.9998 43.0902C34.7501 43.077 34.5661 43.0508 34.3954 42.9982C34.1588 42.9456 34.093 42.8274 34.0799 42.5514C34.0537 41.8548 34.0537 40.3831 34.0537 39.3843C34.0537 39.1083 34.1325 38.9768 34.2113 38.898C34.5135 38.6352 34.9998 38.4512 35.4335 38.4512C35.854 38.4512 36.13 38.5826 36.3403 38.7535C36.6293 38.99 36.7213 39.3317 36.7608 39.5814C36.8264 40.1465 36.8002 41.2635 36.8002 42.236C36.8002 42.7616 36.7608 42.8931 36.5637 42.9587C36.4717 42.9982 36.2351 43.0508 35.9591 43.077C35.8671 43.169 35.8934 43.5764 35.9591 43.6684C36.3403 43.6684 36.7871 43.629 37.4442 43.629C38.2589 43.629 38.7846 43.6684 38.9949 43.6684C39.0605 43.5896 39.0868 43.2084 39.0342 43.1033H39.0343V43.1033V43.1033ZM42.6746 38.0833C41.9781 38.0833 41.5444 38.6221 41.5444 39.4631C41.5444 40.3173 41.9254 41.3029 43.0031 41.3029C43.1871 41.3029 43.5288 41.2241 43.6864 41.0401C43.9361 40.8035 44.107 40.3304 44.107 39.8311C44.107 38.7404 43.5681 38.0833 42.6746 38.0833V38.0833V38.0833V38.0833ZM42.5825 43.8918C42.3197 43.8918 42.1357 43.9706 42.0175 44.0364C41.4654 44.3912 41.2158 44.7328 41.2158 45.1403C41.2158 45.5214 41.3603 45.8236 41.6758 46.0865C42.0569 46.415 42.5825 46.5727 43.2527 46.5727C44.5932 46.5727 45.1846 45.8499 45.1846 45.1403C45.1846 44.6409 44.9349 44.3123 44.4224 44.1284C44.0544 43.9706 43.3842 43.8918 42.5825 43.8918V43.8918V43.8918V43.8918ZM42.6746 47.3086C41.8729 47.3086 41.2946 47.1377 40.7953 46.7567C40.309 46.3887 40.0988 45.8367 40.0988 45.4557C40.0988 45.3506 40.1251 45.0614 40.3616 44.7986C40.5061 44.6409 40.8215 44.3386 41.5707 43.8262C41.5969 43.813 41.61 43.7999 41.61 43.7735C41.61 43.7472 41.5837 43.7209 41.5575 43.7079C40.9398 43.4713 40.7558 43.0902 40.7032 42.8799V42.8536C40.6902 42.7748 40.6639 42.696 40.7822 42.617C40.8741 42.5514 41.0056 42.4726 41.15 42.3806C41.3734 42.2491 41.61 42.1046 41.7546 41.9863C41.7809 41.96 41.7809 41.9338 41.7809 41.9075C41.7809 41.8811 41.7546 41.8548 41.7283 41.8418C40.8085 41.5394 40.3485 40.8561 40.3485 39.8311C40.3485 39.1609 40.6507 38.5563 41.1895 38.1753C41.5575 37.8861 42.4773 37.5314 43.0819 37.5314H43.1214C43.739 37.5444 44.0807 37.6758 44.5668 37.8467C44.8297 37.9387 45.0794 37.9781 45.4211 37.9781C45.9336 37.9781 46.157 37.8204 46.341 37.6365C46.3541 37.6627 46.3804 37.7285 46.3936 37.8992C46.4067 38.0701 46.3541 38.3197 46.2227 38.5038C46.1175 38.6483 45.8811 38.7535 45.6445 38.7535H45.5788C45.3422 38.7272 45.2371 38.7009 45.2371 38.7009L45.1846 38.7272C45.1714 38.7535 45.1846 38.7797 45.1977 38.8192L45.2109 38.8455C45.2371 38.9638 45.2897 39.3185 45.2897 39.4106C45.2897 40.4882 44.856 40.9612 44.3961 41.316C43.9492 41.6446 43.4368 41.8548 42.8585 41.9075C42.8453 41.9075 42.7928 41.9075 42.6746 41.9206C42.6088 41.9206 42.5168 41.9338 42.5036 41.9338H42.4905C42.3854 41.96 42.1226 42.0914 42.1226 42.3148C42.1226 42.5119 42.2409 42.7485 42.8059 42.7879C42.9242 42.8011 43.0424 42.8011 43.1739 42.8142C43.9229 42.8668 44.856 42.9325 45.2897 43.077C45.8941 43.3004 46.2753 43.8392 46.2753 44.4832C46.2753 45.4557 45.5788 46.3625 44.4224 46.9275C43.8573 47.1772 43.2922 47.3086 42.6746 47.3086V47.3086V47.3086V47.3086ZM50.1652 38.149C49.8892 38.149 49.6395 38.2146 49.4555 38.3461C48.9431 38.6614 48.6802 39.2923 48.6802 40.2122C48.6802 41.9338 49.5475 43.1428 50.7828 43.1428C51.1508 43.1428 51.4399 43.0377 51.6896 42.8274C52.0707 42.5119 52.2679 41.8811 52.2679 41.0007C52.2679 39.2923 51.4136 38.149 50.1652 38.149V38.149V38.149V38.149ZM50.4018 43.7735C48.1677 43.7735 47.3661 42.1309 47.3661 40.5933C47.3661 39.5157 47.7997 38.6877 48.667 38.0963C49.2848 37.7153 50.0207 37.505 50.6777 37.505C52.3861 37.505 53.5821 38.7272 53.5821 40.4882C53.5821 41.684 53.1089 42.6302 52.2021 43.2084C51.7685 43.4975 51.0194 43.7735 50.4017 43.7735H50.4018V43.7735V43.7735ZM26.9835 38.149C26.7075 38.149 26.4579 38.2146 26.2739 38.3461C25.7614 38.6614 25.4985 39.2923 25.4985 40.2122C25.4985 41.9338 26.3658 43.1428 27.6012 43.1428C27.9692 43.1428 28.2582 43.0377 28.5079 42.8274C28.889 42.5119 29.0862 41.8811 29.0862 41.0007C29.0862 39.2923 28.2451 38.149 26.9835 38.149V38.149V38.149V38.149ZM27.2201 43.7735C24.986 43.7735 24.1844 42.1309 24.1844 40.5933C24.1844 39.5157 24.618 38.6877 25.4853 38.0963C26.1031 37.7153 26.839 37.505 27.496 37.505C29.2045 37.505 30.4004 38.7272 30.4004 40.4882C30.4004 41.684 29.9272 42.6302 29.0204 43.2084C28.5999 43.4975 27.8509 43.7735 27.2201 43.7735V43.7735V43.7735V43.7735ZM12.1993 43.6421C12.173 43.6028 12.1467 43.4845 12.1598 43.3399C12.1598 43.2348 12.1861 43.169 12.1993 43.1428C12.4752 43.1033 12.6198 43.0638 12.7774 43.0245C13.0403 42.9587 13.1454 42.8142 13.1586 42.4857C13.198 41.6972 13.198 40.199 13.1849 39.1609V39.1346C13.1849 39.0163 13.1849 38.8717 13.0403 38.7666C12.83 38.6352 12.5803 38.517 12.2518 38.4249C12.1335 38.3855 12.0547 38.3197 12.0678 38.2409C12.0678 38.1621 12.1467 38.0701 12.3176 38.0438C12.7512 38.0044 13.8813 37.7285 14.3281 37.5314C14.3544 37.5575 14.3939 37.6365 14.3939 37.7416L14.3807 37.8861C14.3676 38.0307 14.3544 38.2016 14.3544 38.3724C14.3544 38.4249 14.4071 38.4643 14.4596 38.4643C14.4859 38.4643 14.5122 38.4512 14.5385 38.438C15.3795 37.781 16.1417 37.5444 16.5359 37.5444C17.1799 37.5444 17.6793 37.8467 18.0604 38.4775C18.0866 38.517 18.1129 38.53 18.1524 38.53C18.1787 38.53 18.2181 38.517 18.2312 38.4907C19.0066 37.8992 19.7819 37.5444 20.2944 37.5444C21.5166 37.5444 22.2394 38.4512 22.2394 39.9887C22.2394 40.4224 22.2394 40.9875 22.2263 41.5001C22.2263 41.96 22.2131 42.3806 22.2131 42.6828C22.2131 42.7485 22.3051 42.9587 22.4497 42.9982C22.6336 43.0902 22.8833 43.1296 23.2119 43.1821H23.225C23.2514 43.2741 23.1987 43.6158 23.1462 43.6816C23.0673 43.6816 22.949 43.6816 22.8177 43.6684C22.568 43.6553 22.2131 43.6421 21.8189 43.6421C21.0041 43.6421 20.5836 43.6553 20.1761 43.6816C20.1499 43.5764 20.1368 43.2611 20.1761 43.1821C20.4127 43.1428 20.531 43.1033 20.6756 43.0638C20.9384 42.985 21.0041 42.8668 21.0173 42.5251C21.0173 42.2755 21.0698 40.1465 20.9909 39.6339C20.9121 39.1083 20.5178 38.4907 19.6505 38.4907C19.3219 38.4907 18.8095 38.6221 18.31 39.0031C18.2838 39.0294 18.2575 39.0951 18.2575 39.1346V39.1477C18.31 39.4236 18.31 39.7391 18.31 40.2253V41.0795C18.31 41.6709 18.2969 42.2228 18.31 42.6433C18.31 42.9325 18.4809 42.9982 18.6255 43.0508C18.7043 43.0638 18.7568 43.077 18.8226 43.0902C18.9409 43.1165 19.0592 43.1428 19.2431 43.1821C19.2694 43.2348 19.2694 43.4055 19.23 43.5501C19.2168 43.6289 19.1905 43.6684 19.1775 43.6816C18.7307 43.6684 18.2707 43.6553 17.6005 43.6553C17.4034 43.6553 17.0617 43.6684 16.7725 43.6684C16.5359 43.6684 16.3125 43.6816 16.1812 43.6816C16.168 43.6553 16.1417 43.5633 16.1417 43.4187C16.1417 43.3004 16.168 43.2084 16.1943 43.1821C16.26 43.169 16.3125 43.1559 16.3783 43.1559C16.5359 43.1296 16.6673 43.1033 16.7988 43.077C17.0222 43.0113 17.101 42.8931 17.1142 42.604C17.1536 41.9469 17.193 40.0677 17.101 39.5945C16.9434 38.8323 16.5097 38.4512 15.8132 38.4512C15.4058 38.4512 14.8932 38.6483 14.4727 38.9638C14.4071 39.0163 14.3544 39.1477 14.3544 39.266V40.0414C14.3544 40.9875 14.3544 42.1703 14.3676 42.6828C14.3807 42.8404 14.4332 43.0245 14.7356 43.0902C14.8013 43.1033 14.9064 43.1296 15.0378 43.1428L15.2744 43.1821C15.3007 43.2611 15.2875 43.5764 15.2349 43.6816C15.1035 43.6816 14.9458 43.6684 14.7618 43.6684C14.4859 43.6553 14.131 43.6421 13.7368 43.6421C13.2769 43.6421 12.9483 43.6553 12.6854 43.6684C12.5015 43.6421 12.3569 43.6421 12.1993 43.6421V43.6421V43.6421V43.6421Z" fill="#442D22"/>
<g clip-path="url(#clip4_134_1394)">
<path fill-rule="evenodd" clip-rule="evenodd" d="M5.28659 46.796L4.7478 46.6119C4.7478 46.6119 4.81358 43.8654 3.82797 43.6683C3.1709 42.9061 3.9331 11.34 6.29851 43.5631C6.29851 43.5631 5.48381 43.9705 5.33921 44.667C5.18146 45.3504 5.28659 46.796 5.28659 46.796V46.796V46.796V46.796Z" fill="white"/>
<path fill-rule="evenodd" clip-rule="evenodd" d="M5.28659 46.796L4.7478 46.6119C4.7478 46.6119 4.81358 43.8654 3.82797 43.6683C3.1709 42.9061 3.9331 11.34 6.29851 43.5631C6.29851 43.5631 5.48381 43.9705 5.33921 44.667C5.18146 45.3504 5.28659 46.796 5.28659 46.796V46.796V46.796V46.796Z" fill="#A6A385"/>
<path fill-rule="evenodd" clip-rule="evenodd" d="M5.57603 44.1414C5.57603 44.1414 10.2938 41.04 9.18993 34.5874C8.1255 29.896 5.61537 28.3584 5.33946 27.767C5.03724 27.3465 4.74805 26.6106 4.74805 26.6106L4.94527 39.6601C4.94527 39.6732 4.53779 43.6551 5.57603 44.1414" fill="white"/>
<path fill-rule="evenodd" clip-rule="evenodd" d="M5.57603 44.1414C5.57603 44.1414 10.2938 41.04 9.18993 34.5874C8.1255 29.896 5.61537 28.3584 5.33946 27.767C5.03724 27.3465 4.74805 26.6106 4.74805 26.6106L4.94527 39.6601C4.94527 39.6732 4.53779 43.6551 5.57603 44.1414" fill="#499D4A"/>
<path fill-rule="evenodd" clip-rule="evenodd" d="M4.47202 44.3121C4.47202 44.3121 0.0433 41.2895 0.306178 35.9673C0.555777 30.6449 3.68351 28.0298 4.28796 27.5566C4.68228 27.1361 4.69543 26.9784 4.72175 26.5579C4.99766 27.1493 4.94515 35.4022 4.9845 36.3746C5.10278 40.1199 4.77425 43.6025 4.47202 44.3121V44.3121V44.3121V44.3121Z" fill="white"/>
<path fill-rule="evenodd" clip-rule="evenodd" d="M4.47202 44.3121C4.47202 44.3121 0.0433 41.2895 0.306178 35.9673C0.555777 30.6449 3.68351 28.0298 4.28796 27.5566C4.68228 27.1361 4.69543 26.9784 4.72175 26.5579C4.99766 27.1493 4.94515 35.4022 4.9845 36.3746C5.10278 40.1199 4.77425 43.6025 4.47202 44.3121V44.3121V44.3121V44.3121Z" fill="#58AA50"/>
</g>
</g>
</g>
</g>
</g>
<defs>
<clipPath id="clip0_134_1394">
<rect width="72.9124" height="72.9124" fill="white" transform="translate(0.750977 0.924805)"/>
</clipPath>
<clipPath id="clip1_134_1394">
<rect width="72.9124" height="20.7914" fill="white" transform="translate(0.294922 26.5291)"/>
</clipPath>
<clipPath id="clip2_134_1394">
<rect width="72.9124" height="20.7914" fill="white" transform="translate(0.294922 26.5291)"/>
</clipPath>
<clipPath id="clip3_134_1394">
<rect width="72.9124" height="20.7914" fill="white" transform="translate(0.294922 26.5291)"/>
</clipPath>
<clipPath id="clip4_134_1394">
<rect width="9.11405" height="20.3642" fill="white" transform="translate(0.294922 26.5291)"/>
</clipPath>
</defs>
</svg>
