<svg width="74" height="73" viewBox="0 0 74 73" fill="none" xmlns="http://www.w3.org/2000/svg">
<path d="M34.4294 0.019621C34.2726 0.0338735 33.7737 0.0837574 33.3247 0.119389C22.9687 1.05293 13.2684 6.63992 7.12466 15.2271C3.70355 20.0017 1.51546 25.4176 0.688696 31.1543C0.396476 33.1568 0.36084 33.7482 0.36084 36.4634C0.36084 39.1785 0.396476 39.7699 0.688696 41.7724C2.67009 55.462 12.4131 66.9638 25.6272 71.2253C27.9934 71.9878 30.488 72.508 33.3247 72.8216C34.4294 72.9427 39.2047 72.9427 40.3094 72.8216C45.2059 72.28 49.354 71.0685 53.4451 68.9805C54.0723 68.6598 54.1934 68.5743 54.1079 68.5031C54.0509 68.4603 51.3782 64.8758 48.1709 60.543L42.3407 52.6685L35.0352 41.8579C31.0154 35.9146 27.7083 31.0545 27.6798 31.0545C27.6513 31.0474 27.6228 35.8505 27.6086 41.7154C27.5872 51.9844 27.5801 52.3977 27.4518 52.64C27.2665 52.9892 27.1239 53.1317 26.8246 53.2885C26.5965 53.4025 26.3969 53.4239 25.3207 53.4239H24.0877L23.7598 53.2172C23.546 53.0818 23.3892 52.9037 23.2823 52.697L23.1326 52.3763L23.1469 38.0881L23.1682 23.7928L23.3892 23.5149C23.5032 23.3653 23.7456 23.1729 23.9166 23.0802C24.2088 22.9377 24.3229 22.9234 25.5559 22.9234C27.0099 22.9234 27.2522 22.9805 27.6299 23.3938C27.7369 23.5078 31.6925 29.4654 36.4251 36.6415C41.1576 43.8177 47.6292 53.6163 50.808 58.4265L56.5811 67.1704L56.8733 66.978C59.4605 65.2962 62.1974 62.9018 64.3641 60.4076C68.9755 55.1128 71.9476 48.6564 72.9454 41.7724C73.2376 39.7699 73.2733 39.1785 73.2733 36.4634C73.2733 33.7482 73.2376 33.1568 72.9454 31.1543C70.964 17.4647 61.221 5.96293 48.0069 1.70142C45.6763 0.946036 43.196 0.425818 40.4163 0.112262C39.7321 0.0409998 35.021 -0.0373891 34.4294 0.019621ZM49.354 22.0683C49.6961 22.2393 49.9741 22.5671 50.0739 22.9092C50.1309 23.0945 50.1451 27.0567 50.1309 35.9859L50.1095 48.7989L47.8501 45.3356L45.5837 41.8722V32.5582C45.5837 26.5365 45.6122 23.1515 45.6549 22.9876C45.769 22.5885 46.0184 22.275 46.3605 22.0897C46.6527 21.94 46.7597 21.9258 47.8786 21.9258C48.9335 21.9258 49.1188 21.94 49.354 22.0683Z" fill="black"/>
</svg>
