<svg width="74" height="73" viewBox="0 0 74 73" fill="none" xmlns="http://www.w3.org/2000/svg">
<path fill-rule="evenodd" clip-rule="evenodd" d="M36.7367 71.9259C35.7573 71.9259 34.8432 71.6647 33.9944 71.2077L25.3104 66.0496C24.0046 65.3313 24.6575 65.0702 25.0493 64.9396C26.8122 64.3519 27.1386 64.2213 28.9668 63.1767C29.1627 63.0461 29.4239 63.1114 29.6198 63.242L36.2797 67.2248C36.5408 67.3554 36.8673 67.3554 37.0632 67.2248L63.1151 52.1421C63.3763 52.0116 63.5068 51.7504 63.5068 51.4239V21.3238C63.5068 20.9974 63.3763 20.7362 63.1151 20.6056L37.0632 5.58823C36.802 5.45765 36.4755 5.45765 36.2797 5.58823L10.2278 20.6056C9.96658 20.7362 9.836 21.0627 9.836 21.3238V51.4239C9.836 51.6851 9.96658 52.0116 10.2278 52.1421L17.3447 56.2556C21.197 58.2144 23.6128 55.9291 23.6128 53.6439V23.9356C23.6128 23.5438 23.9393 23.1521 24.3963 23.1521H27.7263C28.118 23.1521 28.5098 23.4785 28.5098 23.9356V53.6439C28.5098 58.802 25.7022 61.8055 20.8052 61.8055C19.3035 61.8055 18.1282 61.8055 14.7983 60.1732L7.9425 56.2556C6.24488 55.2762 5.2002 53.448 5.2002 51.4892V21.3891C5.2002 19.4303 6.24488 17.6021 7.9425 16.6228L33.9944 1.54007C35.6267 0.625967 37.8467 0.625967 39.479 1.54007L65.5309 16.6228C67.2285 17.6021 68.2732 19.4303 68.2732 21.3891V51.4892C68.2732 53.448 67.2285 55.2762 65.5309 56.2556L39.479 71.3383C38.6302 71.73 37.6508 71.9259 36.7367 71.9259ZM44.7678 51.228C33.3415 51.228 30.9909 46.0046 30.9909 41.5647C30.9909 41.1729 31.3174 40.7812 31.7744 40.7812H35.1697C35.5614 40.7812 35.8879 41.0423 35.8879 41.4341C36.4102 44.8946 37.912 46.5922 44.833 46.5922C50.3177 46.5922 52.6682 45.3517 52.6682 42.4135C52.6682 40.7159 52.0153 39.4753 43.4619 38.6265C36.345 37.9083 31.905 36.3412 31.905 30.6607C31.905 25.372 36.345 22.2379 43.7884 22.2379C52.1459 22.2379 56.2593 25.1108 56.7817 31.379C56.7817 31.5748 56.7164 31.7707 56.5858 31.9666C56.4552 32.0972 56.2593 32.2278 56.0634 32.2278H52.6682C52.3417 32.2278 52.0153 31.9666 51.95 31.6401C51.1665 28.049 49.1424 26.8738 43.7884 26.8738C37.7814 26.8738 37.0632 28.9631 37.0632 30.5302C37.0632 32.4237 37.912 33.0113 46.0083 34.056C54.0394 35.1007 57.8264 36.6024 57.8264 42.2176C57.7611 47.9634 53.06 51.228 44.7678 51.228Z" fill="#539E43"/>
</svg>
