<svg width="74" height="74" viewBox="0 0 74 74" fill="none" xmlns="http://www.w3.org/2000/svg">
<g clip-path="url(#clip0_134_1389)">
<g clip-path="url(#clip1_134_1389)">
<path fill-rule="evenodd" clip-rule="evenodd" d="M71.3255 43.9604C70.9116 42.7068 69.8271 41.8334 68.4245 41.6237C67.7632 41.525 67.0058 41.5671 66.1096 41.7519C64.5476 42.0742 63.3886 42.1968 62.5428 42.2207C65.7352 36.8305 68.3312 30.6837 69.8257 24.8976C72.2421 15.5418 70.9508 11.2796 69.4418 9.35157C65.4483 4.24887 59.6219 1.50745 52.5924 1.42341C48.8429 1.37765 45.5509 2.11801 43.8338 2.65029C42.2349 2.36837 40.5156 2.21082 38.7116 2.18164C35.3306 2.12774 32.343 2.86476 29.7902 4.37963C28.3766 3.90189 26.1086 3.22817 23.4892 2.79811C17.3283 1.78666 12.3631 2.57487 8.73123 5.14057C4.33334 8.24715 2.2945 13.6445 2.67162 21.183C2.79121 23.5764 4.13019 30.8585 6.23824 37.7648C7.44982 41.7342 8.74175 45.0307 10.0782 47.5633C11.9734 51.1544 14.0012 53.2694 16.2778 54.0287C17.554 54.454 19.8723 54.7515 22.3109 52.721C22.62 53.0951 23.0322 53.4671 23.5796 53.8125C24.2745 54.2508 25.1244 54.609 25.9731 54.8212C29.032 55.586 31.8972 55.3946 34.3415 54.3229C34.3565 54.7576 34.3681 55.173 34.378 55.5316C34.3943 56.1135 34.4102 56.6839 34.4316 57.2173C34.5764 60.8245 34.8218 63.6293 35.5489 65.5916C35.5888 65.6997 35.6425 65.8641 35.6993 66.0384C36.0619 67.1492 36.6687 69.0085 38.2117 70.4648C39.81 71.9731 41.743 72.4359 43.5133 72.4357C44.4012 72.4357 45.2484 72.3193 45.9913 72.16C48.6401 71.5925 51.6481 70.7276 53.8241 67.6293C55.8813 64.7002 56.8814 60.2886 57.0624 53.3371C57.0858 53.1407 57.1075 52.953 57.1284 52.7741C57.1424 52.6534 57.1568 52.5299 57.1713 52.4068L57.656 52.4494L57.7809 52.4579C60.4786 52.5808 63.7772 52.0087 65.803 51.0677C67.4038 50.3248 72.5333 47.6168 71.3255 43.9604" fill="black"/>
<path fill-rule="evenodd" clip-rule="evenodd" d="M66.7127 44.6715C58.6916 46.326 58.1402 43.6102 58.1402 43.6102C66.6092 31.0436 70.1495 15.0921 67.0943 11.188C58.7593 0.538548 44.3311 5.57507 44.0904 5.70583L44.0129 5.7197C42.4282 5.39073 40.6547 5.19476 38.6614 5.16223C35.032 5.10275 32.2789 6.11372 30.1898 7.69795C30.1898 7.69795 4.45135 -2.90529 5.64841 21.0335C5.90306 26.1263 12.9478 59.568 21.3505 49.467C24.4217 45.7735 27.3891 42.6505 27.3891 42.6505C28.863 43.6295 30.6274 44.129 32.4771 43.9496L32.6208 43.8276C32.5761 44.2862 32.5965 44.7348 32.6783 45.2658C30.5137 47.6843 31.1498 48.1089 26.8225 48.9997C22.4439 49.902 25.0162 51.5086 26.6956 51.9284C28.7316 52.4376 33.4418 53.1588 36.6245 48.7035L36.4976 49.2119C37.3457 49.8912 37.9413 53.6307 37.8415 57.0205C37.7417 60.4104 37.675 62.7377 38.3433 64.5555C39.0116 66.3734 39.6777 70.4635 45.3662 69.2446C50.1195 68.226 52.5827 65.5863 52.9254 61.1831C53.1685 58.0528 53.7188 58.5155 53.7536 55.7169L54.195 54.3919C54.704 50.1486 54.2758 48.7796 57.2043 49.4163L57.916 49.4788C60.0714 49.5769 62.8924 49.1322 64.548 48.3626C68.1132 46.7081 70.2277 43.9456 66.7124 44.6715H66.7127" fill="#336791"/>
<path fill-rule="evenodd" clip-rule="evenodd" d="M31.6966 23.3111C30.9739 23.2105 30.3192 23.3036 29.988 23.5543C29.8016 23.6954 29.744 23.8588 29.7285 23.9714C29.6869 24.2694 29.8958 24.5989 30.024 24.7689C30.3869 25.25 30.9173 25.5807 31.4422 25.6535C31.5183 25.6641 31.5939 25.6692 31.6692 25.6692C32.5446 25.6692 33.3403 24.9876 33.4105 24.4846C33.4982 23.8545 32.5835 23.4345 31.6966 23.3111" fill="white"/>
<path fill-rule="evenodd" clip-rule="evenodd" d="M55.6425 23.3311H55.6423C55.5735 22.8373 54.6945 22.6965 53.8605 22.8124C53.0279 22.9285 52.2202 23.3043 52.2876 23.7993C52.3419 24.1842 53.0366 24.8413 53.8594 24.8412C53.9288 24.8412 53.999 24.8366 54.0696 24.8267C54.6188 24.7506 55.0217 24.4019 55.2131 24.2008C55.5047 23.8946 55.6733 23.5531 55.6425 23.3311" fill="white"/>
<path fill-rule="evenodd" clip-rule="evenodd" d="M69.3817 44.4835C69.0758 43.5586 68.0915 43.2609 66.4559 43.5988C61.5997 44.601 59.8607 43.9067 59.2895 43.4862C63.0642 37.7358 66.1694 30.7851 67.8445 24.2997C68.6381 21.2278 69.0765 18.3749 69.1122 16.0496C69.1517 13.497 68.7172 11.6216 67.8206 10.4759C64.2058 5.85701 58.9007 3.37949 52.4788 3.3114C48.064 3.26181 44.334 4.39173 43.6108 4.70938C42.088 4.33066 40.4279 4.09817 38.6207 4.06851C35.3064 4.01493 32.4417 4.8084 30.0697 6.42564C29.0394 6.0423 26.3768 5.12828 23.1208 4.60381C17.4912 3.69729 13.0179 4.38408 9.82556 6.64569C6.01639 9.34438 4.25788 14.1683 4.59864 20.9833C4.71329 23.2763 6.01958 30.3297 8.08139 37.0847C10.7952 45.9754 13.7451 51.0085 16.8491 52.0437C17.2123 52.1649 17.6314 52.2498 18.0932 52.2498C19.2255 52.2498 20.6136 51.7393 22.058 50.003C24.4571 47.1168 26.697 44.6983 27.5227 43.8195C28.7428 44.4745 30.0831 44.8402 31.4543 44.8768C31.4567 44.9127 31.4604 44.9486 31.4635 44.9843C31.1885 45.3106 30.9628 45.5965 30.7705 45.8406C29.8206 47.0464 29.6229 47.2974 26.5651 47.9271C25.6954 48.1065 23.385 48.5827 23.3514 50.202C23.3145 51.9712 26.0819 52.7143 26.3974 52.793C27.4962 53.0681 28.5547 53.2038 29.5642 53.2038C32.0196 53.2036 34.1801 52.3968 35.9069 50.8355C35.8536 57.1429 36.1167 63.3582 36.874 65.2519C37.4941 66.802 39.0095 70.5908 43.796 70.5904C44.4981 70.5904 45.2713 70.5088 46.1217 70.3265C51.1169 69.2555 53.286 67.0477 54.1253 62.1804C54.5743 59.5792 55.345 53.3673 55.7072 50.0354C56.4722 50.2739 57.457 50.3831 58.5215 50.383C60.7419 50.383 63.3037 49.9113 64.9104 49.1655C66.7152 48.3274 69.9723 46.2704 69.3817 44.4835V44.4835V44.4835ZM57.486 21.9679C57.4694 22.9516 57.3341 23.8446 57.1906 24.7768C57.0362 25.7793 56.8764 26.8158 56.8362 28.0741C56.7965 29.2986 56.9494 30.5717 57.0974 31.8027C57.3963 34.2893 57.7029 36.8494 56.5157 39.3756C56.3312 39.0479 56.1531 38.6904 55.9898 38.2945C55.8423 37.9368 55.522 37.3623 55.0785 36.567C53.3525 33.4719 49.3109 26.2239 51.3799 23.2662C51.996 22.3857 53.56 21.4808 57.486 21.9679V21.9679V21.9679ZM52.7273 5.30346C58.4812 5.43055 63.0326 7.58309 66.2553 11.701C68.7269 14.8595 66.0053 29.2316 58.1262 41.6304C58.0484 41.5315 57.9692 41.4317 57.8872 41.3293C57.8545 41.2883 57.8212 41.2467 57.7876 41.2046C59.8235 37.8421 59.4254 34.5153 59.071 31.5656C58.9255 30.3551 58.788 29.2118 58.8229 28.138C58.8591 26.9995 59.0096 26.0234 59.1551 25.0794C59.3341 23.916 59.5161 22.7124 59.4659 21.2934C59.5033 21.1446 59.5185 20.9687 59.4989 20.76C59.3707 19.3992 57.8172 15.3271 54.6507 11.6408C52.9188 9.62496 50.3928 7.36877 46.944 5.84705C48.4275 5.53962 50.4561 5.25291 52.7273 5.30346V5.30346V5.30346ZM20.5298 48.7322C18.9385 50.6454 17.8395 50.2788 17.4782 50.1584C15.1235 49.3729 12.3915 44.3963 9.98267 36.5045C7.89837 29.676 6.68026 22.8095 6.58395 20.8841C6.27954 14.7946 7.75566 10.5506 10.9715 8.27004C16.2049 4.55863 24.8093 6.78005 28.2667 7.90679C28.217 7.95575 28.1653 8.00167 28.1161 8.05142C22.4427 13.7813 22.5772 23.5708 22.5911 24.1691C22.5906 24.4 22.6099 24.7269 22.6366 25.1765C22.7341 26.823 22.9158 29.8875 22.4305 33.3579C21.9794 36.5828 22.9735 39.7393 25.1574 42.018C25.3836 42.2538 25.6196 42.4753 25.8634 42.6837C24.8912 43.7249 22.7785 46.027 20.5298 48.7322V48.7322V48.7322ZM26.5926 40.6427C24.8323 38.8062 24.0329 36.2515 24.3991 33.6331C24.9116 29.967 24.7223 26.7742 24.6207 25.0589C24.6065 24.8189 24.5939 24.6085 24.5864 24.4426C25.4153 23.7078 29.2562 21.6496 31.9952 22.2773C33.2454 22.5636 34.0068 23.4147 34.3235 24.8788C35.9624 32.4584 34.5405 35.6176 33.398 38.1562C33.1625 38.6792 32.94 39.1736 32.7499 39.6851L32.6028 40.0804C32.2299 41.0801 31.8831 42.0094 31.6682 42.892C29.7971 42.8862 27.9767 42.087 26.5926 40.6427V40.6427V40.6427ZM26.8797 50.8648C26.3334 50.7283 25.842 50.4912 25.5537 50.2946C25.7945 50.1812 26.2231 50.0272 26.9663 49.8741C30.5636 49.1334 31.119 48.6108 32.3321 47.0705C32.6104 46.7174 32.9256 46.317 33.3622 45.8294C33.3624 45.8291 33.3625 45.8289 33.3627 45.8288C34.0131 45.1007 34.3105 45.2241 34.85 45.4478C35.2872 45.6288 35.713 46.1767 35.8857 46.7798C35.9673 47.0646 36.0592 47.6053 35.7589 48.0258C33.2246 51.5741 29.5319 51.5285 26.8797 50.8648V50.8648V50.8648ZM45.7052 68.3832C41.3046 69.326 39.7465 67.0807 38.7198 64.5139C38.0571 62.8566 37.7314 55.3839 37.9625 47.1317C37.9655 47.0218 37.9499 46.9158 37.9196 46.8161C37.8933 46.6237 37.8528 46.429 37.7967 46.233C37.4529 45.0323 36.6155 44.0278 35.611 43.6115C35.2118 43.4461 34.4791 43.1427 33.5987 43.3678C33.7866 42.5943 34.1122 41.7209 34.4651 40.775L34.6132 40.377C34.78 39.9284 34.9891 39.4638 35.2104 38.972C36.406 36.3157 38.0435 32.6777 36.2663 24.4587C35.6006 21.3803 33.3777 19.8771 30.0079 20.2261C27.9875 20.4352 26.1394 21.2503 25.2176 21.7177C25.0193 21.8182 24.838 21.9151 24.6687 22.0097C24.9259 18.9079 25.8981 13.1114 29.5344 9.44398C31.8238 7.13501 34.873 5.99472 38.5881 6.05611C45.908 6.17602 50.602 9.93256 53.2511 13.0629C55.5338 15.7605 56.7699 18.4777 57.2633 19.9431C53.5535 19.566 51.0303 20.2984 49.7512 22.1269C46.9686 26.1044 51.2735 33.8248 53.3425 37.5351C53.7219 38.2152 54.0494 38.8028 54.1524 39.0525C54.8261 40.6854 55.6984 41.7755 56.3352 42.5713C56.5304 42.8151 56.7199 43.0516 56.8638 43.2581C55.7403 43.5821 53.722 44.3305 53.9059 48.0716C53.7576 49.9489 52.7026 58.7376 52.1668 61.8428C51.4594 65.945 49.9498 67.4731 45.7052 68.3832V68.3832V68.3832ZM64.0736 47.3628C62.9247 47.8961 61.002 48.2962 59.1754 48.382C57.1579 48.4766 56.131 48.1561 55.8894 47.959C55.7759 45.6277 56.6438 45.384 57.5621 45.1262C57.7064 45.0855 57.8472 45.0461 57.9831 44.9986C58.0676 45.0673 58.1601 45.1356 58.2613 45.2024C59.8829 46.2727 62.7752 46.3881 66.8581 45.5454C66.8731 45.5422 66.8881 45.5393 66.9029 45.5363C66.3523 46.0512 65.4099 46.7423 64.0736 47.3628V47.3628V47.3628Z" fill="white"/>
</g>
</g>
<defs>
<clipPath id="clip0_134_1389">
<rect width="69.0674" height="71.2035" fill="white" transform="translate(2.54688 1.323)"/>
</clipPath>
<clipPath id="clip1_134_1389">
<rect width="69.0459" height="71.2035" fill="white" transform="translate(2.54688 1.323)"/>
</clipPath>
</defs>
</svg>
