<svg width="73" height="73" viewBox="0 0 73 73" fill="none" xmlns="http://www.w3.org/2000/svg">
<g clip-path="url(#clip0_134_1393)">
<path d="M36.0586 0.321533C17.6505 0.321535 18.8 8.30437 18.8 8.30437L18.8206 16.5745H36.3869V19.0576H11.8433C11.8433 19.0576 0.0639648 17.7217 0.0639648 36.2956C0.0639635 54.8695 10.3452 54.2108 10.3452 54.2108H16.4811V45.5918C16.4811 45.5918 16.1504 35.3106 26.5982 35.3106H44.0209C44.0209 35.3106 53.8096 35.4688 53.8096 25.8502V9.94608C53.8096 9.94608 55.2958 0.321533 36.0586 0.321533ZM26.3724 5.88284C28.1202 5.88284 29.5327 7.29542 29.5327 9.04314C29.5327 10.7909 28.1202 12.2034 26.3724 12.2034C24.6247 12.2034 23.2121 10.7909 23.2121 9.04314C23.2121 7.29542 24.6247 5.88284 26.3724 5.88284Z" fill="url(#paint0_linear_134_1393)"/>
<path d="M36.5814 72.4559C54.9894 72.4559 53.8399 64.4731 53.8399 64.4731L53.8194 56.2029H36.253V53.7198H60.7967C60.7967 53.7198 72.576 55.0557 72.576 36.4818C72.576 17.9079 62.2947 18.5666 62.2947 18.5666H56.1588V27.1856C56.1588 27.1856 56.4896 37.4668 46.0418 37.4668H28.6191C28.6191 37.4668 18.8303 37.3086 18.8303 46.9272V62.8313C18.8303 62.8313 17.3441 72.4559 36.5814 72.4559ZM46.2675 66.8946C44.5198 66.8946 43.1072 65.482 43.1072 63.7343C43.1072 61.9866 44.5198 60.574 46.2675 60.574C48.0152 60.574 49.4278 61.9866 49.4278 63.7343C49.4278 65.482 48.0152 66.8946 46.2675 66.8946Z" fill="url(#paint1_linear_134_1393)"/>
</g>
<defs>
<linearGradient id="paint0_linear_134_1393" x1="7.0325" y1="6.80982" x2="42.9668" y2="42.3856" gradientUnits="userSpaceOnUse">
<stop stop-color="#387EB8"/>
<stop offset="1" stop-color="#366994"/>
</linearGradient>
<linearGradient id="paint1_linear_134_1393" x1="29.089" y1="29.6543" x2="67.6786" y2="66.1342" gradientUnits="userSpaceOnUse">
<stop stop-color="#FFE052"/>
<stop offset="1" stop-color="#FFC331"/>
</linearGradient>
<clipPath id="clip0_134_1393">
<rect width="72.6869" height="72.6869" fill="white" transform="translate(0.0639648 0.0375977)"/>
</clipPath>
</defs>
</svg>
