<svg width="74" height="73" viewBox="0 0 74 73" fill="none" xmlns="http://www.w3.org/2000/svg">
<g clip-path="url(#clip0_134_1378)">
<path d="M60.3969 25.0133C59.6405 24.753 58.8568 24.5067 58.0498 24.2737C58.1824 23.7324 58.3041 23.198 58.4124 22.6728C60.1891 14.0483 59.0274 7.10039 55.0606 4.81284C51.2569 2.61937 45.0363 4.90641 38.7537 10.3739C38.1496 10.8997 37.5438 11.4563 36.9382 12.0397C36.5347 11.6537 36.1319 11.2807 35.7301 10.9239C29.1458 5.07772 22.546 2.61405 18.5831 4.90823C14.783 7.10805 13.6577 13.6398 15.257 21.8133C15.4115 22.6027 15.592 23.4089 15.7961 24.2287C14.8621 24.4938 13.9604 24.7765 13.0976 25.0772C5.37818 27.7685 0.448242 31.9864 0.448242 36.3616C0.448242 40.8802 5.74054 45.4125 13.7809 48.1607C14.4154 48.3775 15.0738 48.5826 15.7523 48.7773C15.532 49.6638 15.3405 50.5326 15.1797 51.3799C13.6547 59.4116 14.8456 65.789 18.6355 67.9749C22.5502 70.2324 29.1201 67.912 35.5175 62.3199C36.0231 61.8778 36.5306 61.4091 37.0389 60.9177C37.6978 61.5522 38.3557 62.1527 39.0101 62.716C45.2067 68.0484 51.3269 70.2016 55.1133 68.0096C59.024 65.7456 60.295 58.8948 58.6449 50.5596C58.5189 49.923 58.3723 49.2726 58.2076 48.6108C58.669 48.4744 59.1219 48.3335 59.5636 48.1871C67.9222 45.4177 73.3607 40.9406 73.3607 36.3616C73.3607 31.9706 68.2717 27.7242 60.3969 25.0133ZM58.584 45.2306C58.1853 45.3625 57.7762 45.4901 57.3593 45.6138C56.4366 42.6925 55.1912 39.5862 53.6671 36.3767C55.1215 33.2438 56.3187 30.1771 57.2157 27.2748C57.9615 27.4906 58.6854 27.7183 59.383 27.9585C66.1302 30.2812 70.2459 33.7154 70.2459 36.3616C70.2459 39.1802 65.8011 42.8392 58.584 45.2306ZM55.5893 51.1645C56.319 54.8502 56.4232 58.1825 55.9399 60.7875C55.5056 63.1283 54.6323 64.6889 53.5525 65.314C51.2547 66.644 46.3409 64.9152 41.0414 60.3548C40.4339 59.8321 39.822 59.2739 39.2081 58.6831C41.2626 56.4362 43.3159 53.824 45.3199 50.923C48.8446 50.6102 52.1747 50.0988 55.1947 49.4007C55.3434 50.0007 55.4755 50.5892 55.5893 51.1645ZM25.3057 65.0841C23.0607 65.877 21.2727 65.8997 20.1919 65.2765C17.892 63.95 16.9359 58.8295 18.2401 51.9608C18.3895 51.1742 18.5673 50.3662 18.7722 49.5403C21.759 50.2007 25.0647 50.676 28.5979 50.9624C30.6154 53.8012 32.728 56.4105 34.857 58.6952C34.3919 59.1442 33.9285 59.5717 33.4678 59.9746C30.6389 62.4473 27.8041 64.2017 25.3057 65.0841ZM14.7882 45.2133C11.233 43.9981 8.29688 42.4188 6.28433 40.6954C4.47593 39.1467 3.56291 37.6092 3.56291 36.3616C3.56291 33.7066 7.52116 30.3202 14.1228 28.0185C14.9239 27.7392 15.7624 27.476 16.6326 27.2287C17.545 30.1966 18.7418 33.2996 20.1862 36.4374C18.7231 39.6217 17.5093 42.7741 16.5879 45.7768C15.9676 45.5985 15.3666 45.4108 14.7882 45.2133ZM18.3138 21.2151C16.9435 14.2123 17.8536 8.92956 20.1436 7.60395C22.5829 6.19178 27.9768 8.20524 33.6618 13.2532C34.0252 13.5758 34.39 13.9135 34.7559 14.2629C32.6374 16.5376 30.5442 19.1273 28.5446 21.9493C25.1155 22.2671 21.833 22.7777 18.815 23.4614C18.6253 22.6981 18.4572 21.9482 18.3138 21.2151ZM49.7649 28.9812C49.0435 27.735 48.3028 26.5183 47.5477 25.3348C49.8741 25.6289 52.103 26.0193 54.1961 26.497C53.5677 28.511 52.7845 30.6167 51.8625 32.7754C51.2011 31.5197 50.5016 30.2537 49.7649 28.9812ZM36.9392 16.4889C38.3759 18.0454 39.8147 19.7832 41.2299 21.6687C39.8038 21.6013 38.3601 21.5663 36.9045 21.5663C35.4626 21.5663 34.0295 21.6005 32.6123 21.6667C34.0289 19.7988 35.4801 18.0633 36.9392 16.4889ZM24.0314 29.0027C23.3107 30.2524 22.6242 31.5116 21.9732 32.7731C21.0661 30.6219 20.2901 28.5066 19.6563 26.464C21.7366 25.9985 23.955 25.6179 26.2665 25.3293C25.5008 26.5237 24.754 27.7494 24.0314 29.0025V29.0027ZM26.3331 47.616C23.9448 47.3495 21.6931 46.9885 19.6133 46.5358C20.2573 44.4568 21.0504 42.2963 21.9767 40.0988C22.6293 41.3594 23.3186 42.6191 24.0437 43.8715H24.0439C24.7825 45.1474 25.5477 46.3972 26.3331 47.616ZM37.0254 56.4538C35.5491 54.861 34.0766 53.099 32.6385 51.2038C34.0346 51.2586 35.4579 51.2866 36.9045 51.2866C38.3906 51.2866 39.8597 51.2531 41.3058 51.1888C39.886 53.1181 38.4524 54.8828 37.0254 56.4538ZM51.8922 39.9868C52.8667 42.208 53.6883 44.3572 54.3406 46.4008C52.2265 46.8831 49.944 47.2715 47.5391 47.5602C48.296 46.3607 49.0432 45.1231 49.7774 43.85C50.5201 42.5621 51.2254 41.2722 51.8922 39.9868ZM47.0793 42.2939C45.9396 44.2702 44.7694 46.1567 43.5815 47.9374C41.4179 48.0921 39.1827 48.1718 36.9045 48.1718C34.6355 48.1718 32.4284 48.1014 30.303 47.9634C29.0672 46.1593 27.8717 44.2672 26.7392 42.311H26.7395C25.6099 40.3601 24.5704 38.3927 23.6284 36.4363C24.5701 34.4754 25.607 32.5058 26.73 30.5584L26.7297 30.5588C27.8557 28.6062 29.0408 26.7233 30.2651 24.9305C32.4336 24.7666 34.6571 24.6811 36.9043 24.6811H36.9045C39.1618 24.6811 41.3882 24.7673 43.556 24.9326C44.7617 26.7123 45.9387 28.5891 47.0691 30.542C48.2123 32.5167 49.2625 34.4732 50.2123 36.3921C49.2654 38.3439 48.2175 40.3201 47.0793 42.2939ZM53.5048 7.51129C55.9464 8.91931 56.8959 14.5978 55.3618 22.0441C55.264 22.5193 55.1538 23.0032 55.0341 23.4937C52.0091 22.7957 48.7243 22.2763 45.2852 21.9537C43.2817 19.1007 41.2056 16.5069 39.1217 14.2614C39.6819 13.7224 40.2414 13.2085 40.7986 12.7235C46.1815 8.03899 51.2125 6.18945 53.5048 7.51129ZM36.9045 29.8507C40.5002 29.8507 43.4153 32.7657 43.4153 36.3616C43.4153 39.9573 40.5002 42.8724 36.9045 42.8724C33.3087 42.8724 30.3936 39.9573 30.3936 36.3616C30.3936 32.7657 33.3087 29.8507 36.9045 29.8507Z" fill="#00D8FF"/>
</g>
<defs>
<clipPath id="clip0_134_1378">
<rect width="72.9124" height="72.9124" fill="white" transform="translate(0.448242)"/>
</clipPath>
</defs>
</svg>
