<svg width="74" height="73" viewBox="0 0 74 73" fill="none" xmlns="http://www.w3.org/2000/svg">
<path d="M20.6758 30.5032C20.6758 31.4004 20.7727 32.1279 20.9425 32.6614C21.1365 33.1949 21.379 33.7769 21.7185 34.4074C21.8397 34.6014 21.8882 34.7954 21.8882 34.9651C21.8882 35.2076 21.7427 35.4501 21.4275 35.6926L19.8998 36.7111C19.6815 36.8566 19.4633 36.9294 19.2693 36.9294C19.0268 36.9294 18.7843 36.8081 18.5418 36.5899C18.2023 36.2261 17.9113 35.8381 17.6688 35.4501C17.4263 35.0379 17.1838 34.5771 16.917 34.0194C15.0255 36.2504 12.649 37.3659 9.78754 37.3659C7.75055 37.3659 6.12581 36.7839 4.93756 35.6199C3.74931 34.4559 3.14307 32.9039 3.14307 30.9639C3.14307 28.9027 3.87056 27.2294 5.34981 25.9684C6.82905 24.7074 8.79329 24.0769 11.291 24.0769C12.1155 24.0769 12.9643 24.1497 13.8615 24.2709C14.7588 24.3922 15.6803 24.5862 16.6503 24.8044V23.0342C16.6503 21.1912 16.2623 19.9059 15.5105 19.1542C14.7345 18.4025 13.425 18.0387 11.5578 18.0387C10.709 18.0387 9.83604 18.1357 8.93879 18.354C8.04155 18.5722 7.16855 18.839 6.3198 19.1785C5.93181 19.3482 5.64081 19.4452 5.47106 19.4937C5.30131 19.5422 5.18006 19.5665 5.08306 19.5665C4.74356 19.5665 4.57381 19.324 4.57381 18.8147V17.6265C4.57381 17.2385 4.62231 16.9475 4.74356 16.7777C4.86481 16.608 5.08306 16.4382 5.42256 16.2685C6.2713 15.832 7.2898 15.4682 8.47805 15.1772C9.66629 14.862 10.9273 14.7165 12.261 14.7165C15.1468 14.7165 17.2565 15.3712 18.6145 16.6807C19.9483 17.9902 20.6273 19.9787 20.6273 22.6462V30.5032H20.6758ZM10.8303 34.1891C11.6305 34.1891 12.455 34.0436 13.328 33.7526C14.201 33.4616 14.977 32.9282 15.6318 32.2007C16.0198 31.7399 16.3108 31.2307 16.4563 30.6487C16.6018 30.0667 16.6988 29.3634 16.6988 28.5389V27.5204C15.9955 27.3507 15.2438 27.2052 14.4678 27.1082C13.6918 27.0112 12.94 26.9627 12.1883 26.9627C10.5635 26.9627 9.37529 27.2779 8.57505 27.9327C7.7748 28.5874 7.3868 29.5089 7.3868 30.7214C7.3868 31.8612 7.6778 32.7099 8.28405 33.2919C8.86604 33.8981 9.71479 34.1891 10.8303 34.1891ZM30.303 36.8081C29.8665 36.8081 29.5755 36.7354 29.3815 36.5656C29.1875 36.4201 29.0177 36.0806 28.8722 35.6199L23.1735 16.8747C23.028 16.3897 22.9552 16.0745 22.9552 15.9047C22.9552 15.5167 23.1492 15.2985 23.5372 15.2985H25.9137C26.3745 15.2985 26.6897 15.3712 26.8595 15.541C27.0535 15.6865 27.199 16.026 27.3445 16.4867L31.4185 32.5402L35.2014 16.4867C35.3227 16.0017 35.4682 15.6865 35.6622 15.541C35.8562 15.3955 36.1957 15.2985 36.6322 15.2985H38.5722C39.0329 15.2985 39.3482 15.3712 39.5422 15.541C39.7362 15.6865 39.9059 16.026 40.0029 16.4867L43.8344 32.7342L48.0296 16.4867C48.1751 16.0017 48.3449 15.6865 48.5146 15.541C48.7086 15.3955 49.0239 15.2985 49.4604 15.2985H51.7156C52.1036 15.2985 52.3219 15.4925 52.3219 15.9047C52.3219 16.026 52.2976 16.1472 52.2734 16.2927C52.2491 16.4382 52.2006 16.6322 52.1036 16.899L46.2594 35.6441C46.1139 36.1291 45.9442 36.4444 45.7502 36.5899C45.5562 36.7354 45.2409 36.8324 44.8287 36.8324H42.7432C42.2824 36.8324 41.9672 36.7596 41.7732 36.5899C41.5792 36.4201 41.4094 36.1049 41.3124 35.6199L37.5537 19.9787L33.8192 35.5956C33.698 36.0806 33.5525 36.3959 33.3585 36.5656C33.1645 36.7354 32.825 36.8081 32.3885 36.8081H30.303ZM61.4641 37.4629C60.2031 37.4629 58.9421 37.3174 57.7296 37.0264C56.5171 36.7354 55.5714 36.4201 54.9409 36.0564C54.5529 35.8381 54.2861 35.5956 54.1891 35.3774C54.0921 35.1591 54.0436 34.9166 54.0436 34.6984V33.4616C54.0436 32.9524 54.2376 32.7099 54.6014 32.7099C54.7469 32.7099 54.8924 32.7342 55.0379 32.7827C55.1834 32.8312 55.4016 32.9281 55.6441 33.0251C56.4686 33.3889 57.3659 33.6799 58.3116 33.8739C59.2816 34.0679 60.2274 34.1649 61.1974 34.1649C62.7251 34.1649 63.9133 33.8981 64.7378 33.3646C65.5623 32.8312 65.9988 32.0552 65.9988 31.0609C65.9988 30.3819 65.7806 29.8242 65.3441 29.3634C64.9076 28.9027 64.0831 28.4904 62.8948 28.1024L59.3786 27.0112C57.6084 26.4534 56.2989 25.6289 55.4986 24.5377C54.6984 23.4707 54.2861 22.2824 54.2861 21.0214C54.2861 20.0029 54.5044 19.1057 54.9409 18.3297C55.3774 17.5537 55.9594 16.8747 56.6869 16.3412C57.4144 15.7835 58.2389 15.3712 59.2089 15.0802C60.1789 14.7892 61.1973 14.668 62.2643 14.668C62.7978 14.668 63.3556 14.6922 63.8891 14.765C64.4468 14.8377 64.9561 14.9347 65.4653 15.0317C65.9503 15.153 66.4111 15.2742 66.8476 15.4197C67.2841 15.5652 67.6236 15.7107 67.8661 15.8562C68.2056 16.0502 68.4481 16.2442 68.5936 16.4625C68.7391 16.6565 68.8118 16.9232 68.8118 17.2627V18.4025C68.8118 18.9117 68.6178 19.1785 68.2541 19.1785C68.0601 19.1785 67.7448 19.0815 67.3326 18.8875C65.9503 18.257 64.3983 17.9417 62.6766 17.9417C61.2944 17.9417 60.2031 18.16 59.4514 18.6207C58.6996 19.0815 58.3116 19.7847 58.3116 20.7789C58.3116 21.4579 58.5541 22.0399 59.0391 22.5007C59.5241 22.9614 60.4214 23.4222 61.7066 23.8344L65.1501 24.9257C66.8961 25.4834 68.1571 26.2594 68.9088 27.2537C69.6606 28.2479 70.0243 29.3877 70.0243 30.6487C70.0243 31.6914 69.8061 32.6372 69.3938 33.4616C68.9573 34.2861 68.3753 35.0136 67.6236 35.5956C66.8718 36.2019 65.9746 36.6384 64.9318 36.9536C63.8406 37.2931 62.7008 37.4629 61.4641 37.4629Z" fill="#252F3E"/>
<path d="M66.0474 49.2482C58.0692 55.1409 46.4778 58.2692 36.511 58.2692C22.5431 58.2692 9.95739 53.1039 0.451431 44.5195C-0.300316 43.8405 0.378681 42.919 1.27593 43.4525C11.5579 49.4179 24.2406 53.0312 37.3598 53.0312C46.211 53.0312 55.9352 51.1882 64.8834 47.4052C66.2172 46.799 67.3569 48.2782 66.0474 49.2482ZM69.3697 45.4652C68.3512 44.1557 62.6282 44.8347 60.0335 45.15C59.2575 45.247 59.1362 44.568 59.8395 44.0587C64.3984 40.8577 71.8917 41.7792 72.7647 42.8462C73.6377 43.9375 72.5222 51.4307 68.2542 55.0197C67.5994 55.5774 66.9689 55.2864 67.2599 54.5589C68.2299 52.1582 70.3882 46.7505 69.3697 45.4652Z" fill="#FF9900"/>
</svg>
