<svg width="73" height="73" viewBox="0 0 73 73" fill="none" xmlns="http://www.w3.org/2000/svg">
<g clip-path="url(#clip0_134_1383)">
<path d="M16.241 0.0126953C16.6681 0.0126953 55.9017 0.0126953 56.6135 0.0126953C58.578 0.0126953 60.4856 0.325881 62.3362 0.980723C65.0125 1.94875 67.4326 3.65704 69.2548 5.87781C71.1054 8.09858 72.3297 10.8318 72.7568 13.679C72.9276 14.7324 72.9561 15.7859 72.9561 16.8393C72.9561 17.8073 72.9561 51.9161 72.9561 53.4535C72.9561 54.3646 72.9561 55.3042 72.9561 56.2153C72.9561 57.468 72.8991 58.7492 72.6429 59.9735C72.0734 62.7922 70.7353 65.44 68.7992 67.5754C66.8916 69.7107 64.3862 71.3051 61.6814 72.1592C60.03 72.6717 58.3218 72.8995 56.585 72.8995C55.8163 72.8995 16.1271 72.8995 15.5292 72.871C12.6251 72.7287 9.74953 71.7891 7.32946 70.1662C4.96633 68.5718 3.03028 66.3511 1.77754 63.7887C0.695622 61.5964 0.154665 59.1478 0.154665 56.6993C0.154665 56.1298 0.154665 16.7824 0.154665 16.2129C0.0977221 13.7929 0.610207 11.4013 1.66365 9.23743C2.88792 6.67501 4.7955 4.42576 7.15863 2.83136C9.5787 1.18002 12.4258 0.211995 15.3299 0.0696381C15.6146 0.0126953 15.9278 0.0126953 16.241 0.0126953Z" fill="url(#paint0_linear_134_1383)"/>
<path d="M61.5388 59.6318C61.2825 59.2332 60.9978 58.8346 60.6846 58.4645C59.9729 57.6104 59.1472 56.8701 58.2361 56.2437C57.0972 55.475 55.7591 54.991 54.3925 54.934C53.4244 54.8771 52.4564 55.0479 51.5453 55.3896C50.6342 55.7028 49.7516 56.1583 48.8975 56.6139C47.901 57.1263 46.9045 57.6388 45.851 58.0659C44.5983 58.5784 43.2886 58.977 41.9504 59.2617C40.2706 59.5749 38.5623 59.6888 36.8825 59.6603C33.8361 59.6034 30.7897 59.1478 27.8856 58.2937C25.3231 57.5249 22.8746 56.4715 20.5684 55.1333C18.5469 53.966 16.6678 52.6279 14.9026 51.1189C13.4506 49.8661 12.1124 48.528 10.8597 47.1044C10.0055 46.1079 9.17985 45.0545 8.41112 43.9726C8.09794 43.5455 7.81322 43.0899 7.55698 42.6344L0.0405273 34.52V16.156C0.0405273 7.24443 7.24379 0.0126953 16.1553 0.0126953H30.5334L41.1817 10.8318C65.2116 27.1744 57.4389 45.1968 57.4389 45.1968C57.4389 45.1968 64.272 52.8841 61.5388 59.6318Z" fill="url(#paint1_linear_134_1383)"/>
<path d="M41.2388 10.8318C65.2687 27.1744 57.496 45.1968 57.496 45.1968C57.496 45.1968 64.3291 52.9125 61.5674 59.6603C61.5674 59.6603 58.7487 54.934 54.0225 54.934C49.467 54.934 46.7907 59.6603 37.6229 59.6603C17.2089 59.6603 7.55713 42.6059 7.55713 42.6059C25.9497 54.7062 38.5056 46.1363 38.5056 46.1363C30.2204 41.3247 12.5966 18.3198 12.5966 18.3198C27.9427 31.3881 34.5765 34.8332 34.5765 34.8332C30.619 31.559 19.5151 15.558 19.5151 15.558C28.3982 24.555 46.0505 37.1109 46.0505 37.1109C51.0614 23.2169 41.2388 10.8318 41.2388 10.8318Z" fill="white"/>
</g>
<defs>
<linearGradient id="paint0_linear_134_1383" x1="43.3999" y1="-2.58811" x2="29.6292" y2="75.5093" gradientUnits="userSpaceOnUse">
<stop stop-color="#FAAE42"/>
<stop offset="1" stop-color="#EF3E31"/>
</linearGradient>
<linearGradient id="paint1_linear_134_1383" x1="37.2275" y1="1.19036" x2="27.149" y2="58.3485" gradientUnits="userSpaceOnUse">
<stop stop-color="#E39F3A"/>
<stop offset="1" stop-color="#D33929"/>
</linearGradient>
<clipPath id="clip0_134_1383">
<rect width="72.8868" height="72.8868" fill="white" transform="translate(0.0405273 0.0126953)"/>
</clipPath>
</defs>
</svg>
