<svg width="74" height="74" viewBox="0 0 74 74" fill="none" xmlns="http://www.w3.org/2000/svg">
<g opacity="0.86">
<path fill-rule="evenodd" clip-rule="evenodd" d="M10.41 66.538L4.56104 0.9375H68.8316L62.9764 66.5272L36.6574 73.8243L10.41 66.538Z" fill="#0071BC"/>
<path fill-rule="evenodd" clip-rule="evenodd" d="M36.7505 68.2432L57.9911 62.3999L62.9677 6.40063H36.7505V68.2432Z" fill="#29ABE2"/>
<path fill-rule="evenodd" clip-rule="evenodd" d="M17.9492 30.5019L18.6538 38.5357L36.7503 30.5019V22.4551L17.9492 30.5019Z" fill="#B3B3B3"/>
<path fill-rule="evenodd" clip-rule="evenodd" d="M56.7929 13.8655L36.7505 22.4551V30.5019L56.1019 21.8993L56.7929 13.8655Z" fill="#E6E6E6"/>
<path fill-rule="evenodd" clip-rule="evenodd" d="M36.7499 51.5223L36.6877 51.5316L27.7132 49.1215L27.1268 42.7134H19.0498L20.1769 55.3377L36.686 59.9088L36.7499 59.8937V51.5223Z" fill="#E6E6E6"/>
<path fill-rule="evenodd" clip-rule="evenodd" d="M36.7505 30.502V38.5358H46.5762L45.6831 49.0393L36.7505 51.5292V59.8999L53.2047 55.3289L55.3714 30.502H36.7505Z" fill="white"/>
<path fill-rule="evenodd" clip-rule="evenodd" d="M36.7503 30.502H17.9492L18.6538 38.5358H36.7503V30.502Z" fill="#E6E6E6"/>
<path fill-rule="evenodd" clip-rule="evenodd" d="M36.75 21.8993V13.8655H36.6684H16.5205L17.2334 21.8993H36.75Z" fill="#E6E6E6"/>
<path fill-rule="evenodd" clip-rule="evenodd" d="M36.7505 13.8655V21.7986V21.8993H56.1019L56.7929 13.8655H36.7505Z" fill="white"/>
</g>
</svg>
