<svg width="74" height="73" viewBox="0 0 74 73" fill="none" xmlns="http://www.w3.org/2000/svg">
<g clip-path="url(#clip0_134_1387)">
<path d="M57.4751 20.5061L59.0486 21.6454C61.785 23.8526 63.3584 26.3446 63.7005 29.1926C66.6421 28.623 70.4047 29.0502 72.0466 30.1894L73.5516 31.115L73.2779 31.6846C72.7991 32.7527 72.6623 33.0375 72.5938 33.1799C69.9258 38.5199 64.6582 38.5911 62.1954 38.5199C55.9701 54.1129 42.6985 62.7281 24.7749 62.7281C16.4972 62.7281 10.2035 60.0937 5.96202 54.8961C0.352361 48.0608 0.352361 39.1607 0.831234 36.3127L0.968055 35.7431H50.4288C53.0284 35.7431 55.0123 35.0311 55.9701 34.4615C54.9439 32.8951 54.6019 31.115 54.5335 30.1182C54.3282 27.2702 55.0123 24.2798 56.3806 22.1438L57.4751 20.5061ZM13.8292 27.199V34.3191H6.30407V27.199H13.8292ZM22.7226 27.199V34.3191H15.1974V27.199H22.7226ZM31.616 27.199V34.3191H24.0908V27.199H31.616ZM40.5093 27.199V34.3191H32.9842V27.199H40.5093ZM49.4027 27.199V34.3191H41.8775V27.199H49.4027ZM40.5093 18.6549V25.775H32.9842V18.6549H40.5093ZM31.616 18.6549V25.775H24.0908V18.6549H31.616ZM22.7226 18.6549V25.775H15.1974V18.6549H22.7226ZM40.5093 10.1108V17.2309H32.9842V10.1108H40.5093Z" fill="#2396ED"/>
</g>
<defs>
<clipPath id="clip0_134_1387">
<rect width="72.9124" height="72.9124" fill="white" transform="translate(0.63916)"/>
</clipPath>
</defs>
</svg>
