<svg width="74" height="73" viewBox="0 0 74 73" fill="none" xmlns="http://www.w3.org/2000/svg">
<g clip-path="url(#clip0_134_1384)">
<path d="M25.3269 72.9125C32.0348 72.9125 37.4789 67.4684 37.4789 60.7605V48.6084H25.3269C18.6189 48.6084 13.1748 54.0525 13.1748 60.7605C13.1748 67.4684 18.6189 72.9125 25.3269 72.9125Z" fill="#0ACF83"/>
<path d="M13.1748 36.4563C13.1748 29.7483 18.6189 24.3042 25.3269 24.3042H37.4789V48.6083H25.3269C18.6189 48.6083 13.1748 43.1642 13.1748 36.4563Z" fill="#A259FF"/>
<path d="M13.1748 12.1521C13.1748 5.44413 18.6189 0 25.3269 0H37.4789V24.3041H25.3269C18.6189 24.3041 13.1748 18.86 13.1748 12.1521Z" fill="#F24E1E"/>
<path d="M37.479 0H49.6311C56.339 0 61.7831 5.44413 61.7831 12.1521C61.7831 18.86 56.339 24.3041 49.6311 24.3041H37.479V0Z" fill="#FF7262"/>
<path d="M61.7831 36.4563C61.7831 43.1642 56.339 48.6083 49.6311 48.6083C42.9231 48.6083 37.479 43.1642 37.479 36.4563C37.479 29.7483 42.9231 24.3042 49.6311 24.3042C56.339 24.3042 61.7831 29.7483 61.7831 36.4563Z" fill="#1ABCFE"/>
</g>
<defs>
<clipPath id="clip0_134_1384">
<rect width="72.9124" height="72.9124" fill="white" transform="translate(0.927734)"/>
</clipPath>
</defs>
</svg>
